<?xml version="1.0" standalone="no"?>
<!DOCTYPE svg PUBLIC "-//W3C//DTD SVG 20010904//EN"
 "http://www.w3.org/TR/2001/REC-SVG-20010904/DTD/svg10.dtd">
<svg version="1.0" xmlns="http://www.w3.org/2000/svg"
 width="1068.000000pt" height="386.000000pt" viewBox="0 0 1068.000000 386.000000"
 preserveAspectRatio="xMidYMid meet">
<metadata>
Created by potrace 1.16, written by Peter Selinger 2001-2019
</metadata>
<g transform="translate(0.000000,386.000000) scale(0.100000,-0.100000)"
fill="#000000" stroke="none">
<path d="M1860 1925 l0 -1235 23 0 c72 0 6745 0 6760 0 16 0 17 65 17 1235 l0
1235 -3400 0 -3400 0 0 -1235z m6748 -2 l2 -1183 -3350 0 -3350 0 0 1178 c0
648 3 1182 7 1185 3 4 1510 6 3347 5 l3341 -3 3 -1182z"/>
<path d="M7725 2520 c-96 -20 -159 -53 -215 -109 -63 -63 -80 -106 -80 -197 0
-75 33 -147 92 -207 24 -24 100 -81 168 -127 217 -147 275 -223 275 -362 0
-83 -12 -110 -68 -152 -42 -31 -140 -34 -200 -6 -70 33 -144 119 -207 243 -30
59 -61 107 -69 107 -11 0 -13 -27 -7 -162 5 -99 12 -169 19 -177 19 -22 85
-48 169 -65 239 -49 446 27 524 193 54 113 30 249 -61 349 -20 23 -105 87
-188 144 -227 154 -271 207 -271 326 0 70 17 101 74 140 39 26 140 31 193 8
51 -21 115 -101 166 -208 25 -54 49 -98 54 -98 13 0 8 306 -5 318 -41 33 -277
61 -363 42z"/>
<path d="M2300 2494 c0 -9 11 -14 28 -14 32 0 104 -43 145 -87 l28 -30 -3
-444 c-3 -437 -3 -445 -25 -486 -28 -51 -72 -83 -123 -90 -22 -3 -40 -10 -40
-14 0 -5 88 -9 195 -9 107 0 198 0 202 -1 4 0 9 4 11 10 2 6 -7 11 -21 11 -38
0 -90 41 -115 91 -22 45 -22 47 -20 452 l3 408 195 -222 c107 -123 307 -350
443 -506 137 -156 253 -283 257 -283 5 0 10 236 12 533 l3 532 23 45 c27 51
61 80 105 89 17 4 32 11 34 17 2 7 -59 10 -187 10 -124 0 -189 -4 -187 -10 2
-6 18 -13 36 -17 40 -8 67 -32 95 -84 20 -38 21 -55 24 -389 3 -237 0 -347 -7
-345 -5 2 -45 45 -88 95 -43 50 -191 221 -328 380 -138 159 -265 308 -283 331
l-33 42 -190 -1 c-152 -1 -189 -3 -189 -14z"/>
<path d="M3735 2501 c-3 -6 11 -13 32 -16 73 -12 83 -15 95 -38 10 -17 13
-138 13 -540 l0 -519 -28 -24 c-19 -17 -40 -24 -68 -24 -27 0 -39 -4 -39 -14
0 -12 67 -14 423 -14 233 0 428 3 434 6 9 6 33 218 33 289 0 29 -20 10 -43
-41 -35 -77 -86 -129 -159 -161 -54 -24 -79 -29 -173 -33 -99 -4 -112 -2 -135
16 l-25 20 -3 252 -3 252 123 -4 c102 -3 131 -8 170 -27 53 -25 82 -59 93
-108 16 -75 23 -22 22 152 -2 175 -8 220 -23 158 -9 -37 -50 -81 -94 -100 -23
-10 -80 -17 -162 -21 l-128 -5 0 221 c0 282 -9 267 157 267 112 0 121 -2 171
-29 55 -31 101 -89 122 -152 22 -67 31 -35 28 104 l-3 137 -412 3 c-255 1
-414 -1 -418 -7z"/>
<path d="M4730 2498 c0 -7 12 -11 62 -22 48 -11 111 -90 282 -354 166 -259
168 -263 152 -287 -65 -99 -263 -350 -311 -393 -61 -56 -140 -102 -176 -102
-11 0 -19 -5 -17 -11 2 -6 7 -10 11 -10 4 1 95 1 202 1 123 0 195 4 195 10 0
6 -11 10 -25 10 -31 0 -75 41 -75 69 0 38 38 118 97 202 111 162 138 199 143
199 7 0 267 -400 277 -426 8 -20 -15 -44 -43 -44 -13 0 -24 -4 -24 -10 0 -5 9
-10 20 -10 11 0 112 0 225 0 113 0 210 0 215 0 23 0 8 20 -15 20 -37 0 -86 23
-128 59 -30 27 -367 531 -382 573 -6 17 209 310 284 386 63 64 134 111 184
121 17 4 32 11 34 16 2 7 -74 10 -207 11 -115 0 -210 -2 -210 -7 0 -9 26 -19
49 -19 56 0 67 -88 23 -171 -37 -70 -180 -274 -192 -274 -8 0 -49 60 -209 307
-34 54 -61 105 -59 115 2 9 17 20 36 25 72 19 21 25 -193 24 -124 0 -225 -4
-225 -8z"/>
<path d="M6013 2496 c2 -6 25 -13 50 -16 26 -3 52 -11 58 -17 23 -23 28 -106
29 -454 0 -326 2 -362 20 -421 58 -187 229 -298 460 -298 260 0 440 143 470
372 5 40 10 209 10 376 0 286 1 306 21 353 22 50 58 80 112 93 66 16 13 22
-178 22 -188 0 -248 -7 -177 -21 52 -11 97 -42 122 -86 l25 -44 0 -370 c0
-366 0 -371 -24 -429 -30 -76 -79 -128 -149 -163 -51 -25 -68 -28 -157 -28
-89 0 -106 3 -157 28 -100 49 -156 137 -178 277 -8 49 -10 194 -8 423 l3 349
24 19 c13 10 36 19 51 19 32 0 60 9 60 19 0 4 -110 7 -245 7 -168 0 -244 -3
-242 -10z"/>
</g>
</svg>
