<?xml version="1.0" standalone="no"?>
<!DOCTYPE svg PUBLIC "-//W3C//DTD SVG 20010904//EN"
 "http://www.w3.org/TR/2001/REC-SVG-20010904/DTD/svg10.dtd">
<svg version="1.0" xmlns="http://www.w3.org/2000/svg"
 width="1832.000000pt" height="758.000000pt" viewBox="0 0 1832.000000 758.000000"
 preserveAspectRatio="xMidYMid meet">
<metadata>
Created by potrace 1.16, written by Peter Selinger 2001-2019
</metadata>
<g transform="translate(0.000000,758.000000) scale(0.100000,-0.100000)"
fill="#000000" stroke="none">
<path d="M0 3790 l0 -3790 2285 0 c1824 0 2283 3 2280 12 -6 16 37 68 55 68 9
0 6 -8 -8 -23 -17 -19 -19 -25 -8 -39 12 -16 35 -18 230 -18 193 0 216 2 216
16 0 24 30 43 68 44 22 0 32 5 32 15 0 8 5 15 10 15 6 0 10 -6 10 -14 0 -8 -4
-18 -10 -21 -6 -3 -10 -17 -10 -30 0 -21 4 -24 40 -23 32 0 40 4 40 19 0 11 7
19 15 19 8 0 15 -7 15 -16 0 -12 6 -15 23 -10 12 3 30 6 40 6 10 0 15 5 11 11
-3 6 -17 8 -30 5 -27 -7 -33 8 -8 18 10 4 14 14 11 25 -2 10 0 26 5 35 7 13 4
16 -17 16 -27 0 -32 17 -15 49 14 27 36 32 52 13 10 -12 10 -14 0 -8 -15 9
-42 -10 -42 -29 0 -20 53 -13 72 10 9 11 19 17 23 14 3 -4 -2 -14 -11 -23 -22
-22 -13 -29 13 -11 12 9 19 22 17 32 -7 27 29 44 76 37 34 -6 40 -10 38 -28
-2 -15 3 -22 20 -24 12 -2 22 -8 22 -13 0 -13 25 -11 79 6 25 8 58 17 74 20
30 6 37 25 10 25 -16 1 -16 2 -2 13 9 7 14 18 12 24 -3 8 4 13 17 13 16 0 20
-4 16 -15 -3 -9 0 -15 9 -15 8 0 15 -4 15 -8 0 -12 114 -2 121 11 7 10 24 -50
20 -71 -1 -7 5 -22 14 -34 8 -13 15 -35 15 -50 0 -24 5 -30 32 -35 l32 -6 -39
-13 c-33 -10 59 -12 508 -13 523 -1 547 0 547 17 0 11 15 26 37 38 21 11 40
29 42 39 4 26 19 35 59 35 42 0 41 -17 -2 -25 -26 -5 -33 -11 -29 -24 3 -13
-8 -26 -41 -45 -25 -15 -46 -29 -46 -31 0 -3 87 -4 193 -3 105 1 168 3 140 5
-29 2 -53 8 -53 14 0 9 27 14 67 10 12 -1 24 3 28 9 4 6 -9 10 -34 10 -42 0
-64 16 -36 26 9 4 21 17 26 30 5 14 17 24 29 24 11 0 20 7 20 15 0 8 -9 15
-19 15 -30 0 -33 16 -6 28 18 8 25 8 29 -1 3 -7 3 -2 0 10 -4 19 0 23 31 29
36 6 59 24 31 24 -25 0 -29 19 -8 38 11 9 23 27 27 40 6 21 5 22 -20 10 -25
-11 -25 -13 -9 -25 16 -11 16 -13 1 -13 -9 0 -22 -8 -29 -17 -22 -30 -45 -44
-77 -48 -22 -3 -31 0 -31 10 0 11 -12 15 -40 15 -42 0 -54 14 -20 25 11 4 18
10 15 14 -2 5 14 11 36 15 35 6 39 9 28 22 -10 12 -14 12 -21 2 -7 -9 -8 -7
-6 7 2 12 12 21 23 21 11 1 26 2 33 3 14 1 17 31 2 31 -5 0 -10 -4 -10 -10 0
-5 -12 -10 -26 -10 l-26 0 31 29 c17 16 31 34 31 40 0 6 7 11 15 11 8 0 15 6
15 14 0 8 7 22 16 31 9 9 14 19 10 22 -5 6 -20 -9 -71 -70 -12 -13 -31 -29
-43 -36 -12 -6 -22 -18 -22 -26 0 -8 -9 -15 -19 -15 -14 0 -18 -5 -14 -19 3
-11 -2 -21 -11 -24 -25 -10 -29 11 -6 35 12 13 28 38 37 56 8 17 19 32 23 32
5 0 6 8 4 17 -3 12 6 24 27 36 17 10 29 20 26 24 -4 3 5 14 18 25 14 11 25 28
25 38 0 10 3 20 7 22 16 7 112 156 105 163 -4 4 0 6 8 3 8 -2 22 5 32 16 15
18 19 19 28 6 8 -13 10 -13 10 3 0 9 -5 17 -12 17 -8 0 -9 3 -2 10 9 9 151 21
277 24 26 1 39 6 43 18 3 11 15 18 31 18 14 0 38 11 55 25 30 26 65 35 52 13
-4 -7 -3 -8 4 -4 7 4 12 13 12 21 0 21 16 26 47 14 15 -6 22 -13 16 -16 -13
-5 -19 -33 -7 -33 15 0 54 61 54 85 0 10 9 15 28 14 29 -2 164 19 171 27 2 2
-18 4 -46 4 -37 0 -54 5 -68 20 -18 20 -45 27 -45 12 0 -4 5 -13 12 -20 8 -8
8 -12 1 -12 -10 0 -23 22 -23 40 0 13 60 40 89 40 19 0 22 3 12 9 -17 11 -5
31 19 31 33 0 32 19 -1 28 -45 11 -47 28 -5 36 49 9 55 26 9 26 -21 0 -58 1
-83 2 -80 4 -303 -9 -391 -23 -79 -11 -88 -11 -104 4 -14 14 -14 17 -1 17 8 0
18 9 21 20 5 17 15 20 72 20 50 0 71 5 90 20 14 11 20 20 14 20 -7 0 -10 4 -6
9 5 9 50 20 148 36 32 5 38 10 34 26 -6 23 -3 25 46 34 30 6 37 4 37 -9 0 -9
8 -16 19 -16 10 0 21 -7 25 -15 3 -8 10 -15 17 -15 16 0 81 32 97 47 17 17 35
17 30 1 -3 -7 -21 -22 -41 -33 -20 -11 -37 -26 -37 -32 0 -22 49 -14 80 13 41
37 73 52 127 59 74 10 86 15 74 29 -6 7 -8 16 -4 19 3 4 -1 7 -10 7 -10 0 -17
-4 -17 -10 0 -5 -11 -10 -24 -10 -13 0 -40 -7 -59 -15 -26 -11 -43 -12 -62 -5
-34 13 -32 23 5 18 17 -3 30 -1 30 3 0 7 14 10 131 27 37 5 74 14 83 19 24 13
86 4 80 -12 -10 -26 152 -47 178 -23 7 7 22 14 33 15 34 3 95 27 92 37 -2 5
-23 16 -47 25 -68 25 -62 39 22 44 40 3 91 9 113 15 35 9 29 10 -45 8 -47 -2
-96 1 -110 7 -24 9 -24 10 -5 17 37 14 -26 29 -122 29 -48 -1 -100 2 -114 6
-15 4 -55 0 -90 -9 -35 -8 -80 -18 -99 -22 -19 -3 -44 -13 -55 -20 -27 -19
-75 -18 -75 1 0 8 7 15 15 15 8 0 15 7 15 15 0 11 12 15 43 16 38 1 39 2 12 8
-23 5 -29 12 -28 29 2 13 -3 22 -12 22 -7 0 -16 4 -19 8 -2 4 11 6 31 4 34 -4
83 13 83 30 0 4 -7 8 -15 8 -8 0 -15 -4 -15 -10 0 -5 -7 -7 -15 -4 -14 6 -13
8 2 20 12 9 14 13 5 14 -7 0 -11 4 -7 10 3 5 12 7 20 3 12 -4 15 3 15 30 0 20
-6 37 -12 40 -7 2 -3 2 9 1 12 -2 23 2 26 9 3 9 7 9 20 -2 15 -12 17 -11 17 7
0 12 5 24 10 27 6 4 8 11 4 16 -3 6 -15 4 -30 -5 -30 -20 -64 -21 -64 -1 0 19
8 22 83 30 31 4 57 11 57 16 0 12 -74 11 -86 -1 -8 -8 -15 -6 -24 5 -9 10 -9
15 -1 15 22 0 81 45 81 63 0 20 -3 19 83 22 76 2 86 7 63 30 -9 9 -16 20 -16
24 0 4 -10 13 -23 19 -18 9 -14 10 23 5 25 -3 50 -10 56 -15 12 -9 44 -1 44
12 0 4 -24 13 -52 20 -82 18 -89 21 -82 31 3 5 11 9 17 8 7 -1 31 -1 55 0 34
1 42 5 42 20 0 16 -7 18 -46 16 -26 -2 -50 -9 -55 -16 -6 -11 -11 -11 -20 -2
-10 10 -9 17 5 32 19 21 14 41 -11 41 -9 0 -13 -6 -9 -15 3 -8 1 -15 -4 -15
-5 0 -7 -7 -4 -15 4 -8 1 -15 -5 -15 -6 0 -11 17 -11 40 0 32 4 39 18 38 36
-3 62 2 62 12 0 6 -15 10 -32 9 -18 -2 -44 3 -56 10 -23 12 -23 13 -5 31 20
20 33 17 33 -8 0 -14 4 -13 18 6 l17 22 37 -25 c37 -25 37 -25 48 -5 6 12 8
29 5 39 -4 13 1 20 16 24 19 5 20 8 9 21 -10 13 -10 16 3 16 25 0 28 38 4 46
-20 6 -20 7 -2 20 10 8 15 14 11 14 -5 0 -3 6 3 14 10 12 8 15 -11 18 -18 2
-24 11 -29 43 -4 22 -5 42 -2 45 9 9 33 -34 33 -59 0 -13 3 -21 7 -18 9 10 10
87 0 87 -4 0 -7 7 -5 16 2 10 -3 19 -9 21 -8 3 -13 -4 -13 -16 0 -12 -4 -21
-9 -21 -16 0 -18 34 -4 55 12 19 10 20 -30 17 -41 -3 -42 -2 -17 12 14 9 33
15 43 16 21 0 23 26 2 34 -8 3 -14 11 -13 18 2 7 -6 13 -17 13 -14 0 -19 7
-18 20 4 37 -5 48 -23 30 -11 -10 -25 -14 -38 -11 -12 4 -40 9 -63 12 -45 7
-48 10 -34 33 6 10 13 11 29 2 26 -14 52 -14 52 -1 0 6 -7 10 -15 10 -8 0 -15
5 -15 11 0 16 31 6 44 -14 8 -14 8 -20 -4 -27 -20 -13 4 -13 28 -1 9 5 26 12
37 16 15 5 17 8 6 15 -8 4 -19 6 -26 4 -16 -6 -39 22 -30 36 4 7 17 9 30 6 15
-4 25 -1 29 9 4 11 -2 15 -24 15 -17 0 -30 5 -30 10 0 6 -25 10 -55 10 -30 0
-55 -4 -55 -10 0 -5 10 -10 23 -10 34 0 67 -11 62 -20 -3 -5 -22 -6 -43 -4
-28 4 -33 3 -22 -5 13 -10 13 -12 0 -21 -22 -14 -27 -12 -33 10 -3 11 0 20 6
20 6 0 2 7 -10 15 -11 8 -23 28 -25 45 l-5 30 56 -1 c31 -1 44 -4 29 -6 -48
-7 -30 -21 27 -22 33 0 53 4 50 9 -6 10 13 14 47 11 9 -1 19 3 23 9 4 6 -13
10 -49 10 -31 0 -56 5 -56 10 0 6 -15 11 -32 11 -24 1 -27 3 -10 6 12 2 22 9
22 14 0 14 -44 11 -66 -6 -23 -17 -44 -19 -44 -4 0 6 14 16 30 22 34 13 40 27
10 27 -11 0 -20 5 -20 10 0 6 -7 10 -15 10 -20 0 -19 -17 3 -29 22 -13 6 -14
-35 -2 -20 6 -35 6 -38 0 -4 -5 -1 -9 6 -9 7 0 10 -2 7 -5 -3 -3 -17 -1 -31 6
-27 12 -77 5 -77 -11 0 -6 24 -10 54 -10 30 0 58 -4 61 -10 4 -6 -10 -10 -35
-10 -38 0 -80 -23 -67 -36 2 -3 1 -21 -4 -42 -5 -23 -4 -41 3 -49 8 -10 1 -13
-36 -13 -25 0 -46 5 -46 10 0 6 11 10 24 10 24 0 51 22 40 33 -4 3 -15 2 -25
-4 -16 -8 -19 -6 -19 13 0 17 -3 19 -12 10 -15 -15 -38 -16 -38 -2 0 6 7 10
15 10 23 0 18 17 -7 24 -33 8 -40 7 -33 -4 3 -5 2 -10 -4 -10 -6 0 -8 -7 -5
-15 5 -12 -7 -14 -75 -12 -44 1 -81 5 -81 10 0 11 -14 8 -36 -8 -19 -14 -19
-14 3 -30 12 -9 20 -22 17 -30 -3 -8 4 -24 15 -36 17 -18 24 -20 33 -11 10 10
10 17 0 32 -14 23 -16 50 -3 50 12 0 41 -46 41 -65 0 -9 4 -13 10 -10 6 3 7
-1 4 -9 -4 -9 1 -18 10 -22 9 -3 16 -10 16 -15 0 -14 -26 -10 -40 6 -13 16
-50 21 -50 6 0 -4 9 -20 20 -34 27 -34 26 -37 -12 -38 -34 -1 -32 -3 30 -24
12 -4 23 -15 24 -24 2 -30 6 -41 29 -99 12 -30 12 -72 -1 -72 -5 0 -10 -13
-10 -30 0 -16 5 -30 10 -30 16 0 32 -50 34 -102 1 -26 5 -50 9 -54 11 -11 9
-50 -5 -79 -14 -30 -28 -33 -28 -4 0 12 -8 23 -19 26 -20 5 -26 53 -8 65 7 4
7 11 -2 22 -11 13 -11 16 3 16 17 0 23 19 6 22 -32 4 -35 1 -37 -47 -1 -27 -2
-52 -2 -54 -1 -3 -45 33 -107 87 -17 15 -33 34 -37 42 -4 11 -7 9 -12 -7 -6
-17 -15 -23 -37 -23 -22 0 -29 -4 -25 -14 7 -17 -15 -38 -34 -34 -8 2 -13 -3
-11 -10 1 -8 -7 -16 -18 -19 -14 -4 -20 -14 -20 -34 0 -31 -16 -47 -32 -31 -7
7 -6 17 2 31 9 18 8 23 -12 30 -13 5 -26 7 -30 4 -5 -2 -8 1 -8 6 0 6 11 11
24 11 14 0 28 5 31 10 3 6 -1 10 -9 10 -9 0 -16 3 -16 8 0 14 39 32 57 26 13
-4 14 -3 5 3 -7 6 -10 17 -6 29 6 16 4 16 -13 -4 -11 -12 -27 -22 -35 -22 -8
0 -19 -5 -26 -12 -7 -7 -12 -8 -12 -2 0 6 11 17 25 24 25 13 33 30 15 30 -5 0
-10 5 -10 11 0 7 10 9 26 5 24 -6 25 -5 11 9 -9 8 -23 15 -31 15 -9 0 -16 5
-16 10 0 6 -5 10 -11 10 -6 0 -9 -7 -5 -15 4 -11 -1 -15 -19 -15 -16 0 -25 6
-25 15 0 21 40 35 62 21 13 -8 23 -8 36 1 13 7 24 8 36 1 13 -7 22 -6 32 3 11
12 3 14 -54 17 -42 2 -72 8 -82 17 -10 10 -11 15 -2 15 7 0 12 -4 12 -9 0 -6
12 -6 32 0 18 5 41 6 51 3 11 -3 30 0 44 7 18 10 29 10 42 2 16 -10 54 -1 41
10 -15 11 -81 24 -86 16 -9 -16 -37 -10 -30 6 3 8 0 15 -6 15 -7 0 -4 6 6 13
17 12 17 14 2 20 -9 4 -16 2 -16 -3 0 -6 -17 -8 -42 -4 -43 7 -46 -10 -4 -18
27 -4 33 -28 7 -28 -11 0 -23 5 -26 10 -4 7 -12 7 -25 0 -13 -7 -21 -7 -25 0
-3 5 1 10 9 10 9 0 16 7 16 15 0 9 -7 15 -16 13 -10 -2 -19 3 -21 10 -3 6 3
12 11 12 9 0 25 6 36 12 14 9 27 10 48 2 19 -7 35 -7 51 0 18 8 25 7 32 -7 11
-18 59 -24 59 -7 0 6 10 15 23 20 32 13 -194 13 -229 0 -18 -7 -30 -7 -40 1
-7 6 -18 8 -24 4 -6 -4 -16 -2 -23 3 -16 13 -57 -3 -57 -23 0 -11 -10 -15 -36
-15 -19 0 -33 4 -29 9 3 5 1 12 -5 16 -5 3 -10 -1 -10 -9 0 -10 -9 -16 -25
-16 -14 0 -25 5 -25 10 0 6 8 10 19 10 10 0 24 7 31 15 11 13 4 15 -55 14 -37
-1 -72 4 -78 10 -8 8 -3 11 19 12 16 1 35 1 42 0 6 -1 19 2 28 7 29 16 -56 23
-88 7 -27 -13 -28 -13 -28 14 0 15 5 32 12 39 9 9 9 12 0 12 -20 0 -13 30 9
39 21 7 20 8 -7 19 -16 6 -45 15 -64 21 l-35 9 41 1 c42 1 75 23 54 36 -8 5
-7 11 2 23 11 14 10 15 -6 9 -10 -4 -24 -3 -30 3 -15 12 -68 16 -84 6 -15 -9
-52 10 -52 28 0 8 -11 13 -30 12 -35 -1 -40 -13 -8 -18 12 -2 23 -9 26 -17 3
-10 -3 -12 -29 -9 -22 3 -44 -1 -66 -15 -38 -22 -39 -32 -2 -19 29 11 189 15
236 6 18 -3 33 -10 33 -15 0 -12 -47 -11 -55 1 -3 6 -24 10 -46 10 -47 0 -53
-20 -6 -21 47 -1 23 -8 -63 -18 -69 -8 -71 -9 -25 -10 28 -1 77 -8 110 -15 50
-10 55 -13 33 -18 -16 -3 -28 -1 -28 4 0 5 -64 8 -142 7 -107 0 -137 -3 -123
-11 30 -16 30 -17 9 -33 -19 -15 -19 -16 1 -14 11 1 36 1 55 0 29 -1 32 -3 17
-12 -9 -6 -25 -9 -35 -8 -9 1 -42 0 -72 -1 -48 -1 -52 -3 -32 -12 15 -7 20
-17 17 -28 -4 -12 2 -20 17 -25 21 -7 20 -8 -11 -14 -31 -5 -33 -7 -18 -20 21
-17 21 -28 0 -49 -16 -16 -15 -17 13 -23 16 -4 25 -8 19 -9 -5 -1 -14 -3 -20
-5 -5 -1 -20 -3 -33 -3 -15 -1 -21 -6 -16 -13 5 -9 -6 -10 -39 -5 -69 11 -66
-10 4 -23 34 -6 65 -8 70 -6 4 3 10 1 14 -5 4 -6 -22 -10 -72 -10 -43 0 -85
-5 -93 -10 -16 -10 1 -12 135 -11 47 0 65 -3 54 -9 -9 -5 -62 -10 -119 -11
-62 -1 -97 -5 -89 -10 8 -5 31 -9 51 -9 20 0 40 -4 43 -10 4 -6 -6 -10 -22
-10 -15 0 -35 -5 -43 -11 -11 -7 -7 -9 20 -8 19 0 51 0 70 -1 66 -4 -8 -18
-100 -19 -117 -2 -84 -19 39 -20 53 0 110 -5 126 -10 22 -7 -10 -10 -113 -10
-128 -1 -142 -3 -128 -16 16 -16 42 -20 50 -7 3 5 35 5 73 1 37 -5 76 -8 86
-8 9 -1 17 -5 17 -11 0 -6 -33 -10 -80 -10 -47 0 -80 4 -80 10 0 6 -8 5 -19
-2 -15 -9 -23 -9 -36 2 -12 10 -19 10 -27 2 -8 -8 -4 -14 16 -23 20 -10 29
-10 38 -1 16 16 31 15 25 0 -3 -10 14 -13 72 -11 l76 1 -70 -9 c-38 -5 -85 -9
-102 -9 -18 0 -33 -4 -33 -9 0 -14 48 -18 98 -8 51 10 105 1 81 -14 -7 -5 -37
-9 -65 -9 -39 0 -53 -4 -58 -16 -4 -9 -4 -19 -1 -22 3 -3 5 0 5 6 0 18 140 15
181 -3 34 -14 33 -14 -43 -15 -46 0 -78 4 -78 10 0 6 -5 10 -11 10 -5 0 -8 -4
-5 -9 9 -13 -14 -19 -51 -13 -21 3 -33 0 -33 -7 0 -13 -2 -13 77 -15 34 0 65
-4 69 -8 4 -5 1 -8 -7 -8 -8 0 -20 -9 -27 -20 -15 -24 -13 -24 24 -5 16 8 38
14 49 14 17 -1 17 -2 2 -6 -34 -9 -7 -21 40 -17 47 4 48 4 13 -7 -30 -9 -32
-12 -16 -21 10 -5 26 -8 37 -5 10 3 19 1 19 -5 0 -5 9 -6 20 -3 14 5 20 2 20
-9 0 -10 9 -16 23 -17 12 0 16 -3 9 -6 -7 -3 -27 2 -45 10 -36 16 -234 44
-244 34 -3 -4 7 -7 23 -7 16 0 38 -6 49 -14 11 -7 53 -17 93 -21 73 -7 107
-23 55 -27 -15 -1 -39 -3 -53 -4 -14 -1 -38 -2 -54 -3 -60 -2 -9 -22 67 -26
41 -2 84 -8 94 -14 10 -6 13 -11 7 -11 -7 0 -14 -9 -17 -21 -6 -20 -6 -20 -25
-1 -16 16 -30 20 -64 17 -24 -2 -46 -4 -50 -4 -5 -1 -8 -5 -8 -11 0 -5 22 -10
49 -10 59 0 95 -25 67 -45 -16 -13 -23 -41 -7 -31 5 3 14 -1 21 -9 13 -16 40
-20 40 -7 0 5 -6 17 -14 27 -19 26 4 51 32 36 21 -11 76 4 100 27 7 6 23 12
35 12 12 0 31 8 42 17 l20 16 -20 -8 c-31 -12 -68 -11 -72 2 -3 8 11 12 44 11
26 -1 58 2 71 6 13 5 22 3 22 -3 0 -6 -5 -11 -11 -11 -5 0 -8 -4 -5 -8 6 -10
-93 -62 -117 -62 -9 0 -18 -4 -21 -9 -3 -4 -23 -11 -45 -15 -31 -5 -51 -20
-51 -40 0 -1 16 0 35 2 23 3 40 -1 50 -12 15 -15 13 -16 -27 -17 l-43 -2 35
-6 c19 -4 43 -3 53 1 20 10 57 2 57 -13 0 -5 -5 -9 -12 -9 -9 0 -9 -3 0 -12 8
-8 15 -8 27 2 12 10 18 10 30 0 8 -7 21 -10 29 -7 9 4 13 1 10 -7 -3 -7 -16
-11 -32 -9 -15 3 -38 0 -52 -6 -16 -6 -19 -10 -9 -10 9 -1 19 -8 23 -16 7 -20
26 -19 26 1 0 13 7 15 37 9 44 -8 53 -12 53 -27 0 -6 -11 -8 -25 -6 -14 3 -25
2 -25 -2 0 -5 -9 -6 -19 -3 -16 4 -19 1 -14 -17 4 -15 11 -20 24 -17 11 3 16
0 13 -8 -6 -14 64 -35 118 -35 26 -1 30 -3 16 -10 -9 -6 -44 -8 -77 -6 -61 5
-68 1 -62 -36 0 -5 -8 -8 -19 -8 -11 0 -20 -4 -20 -10 0 -6 27 -10 60 -10 33
0 60 -4 60 -10 0 -6 -34 -9 -85 -8 -46 1 -88 -2 -92 -6 -11 -10 19 -27 37 -20
8 3 11 1 6 -3 -4 -4 -22 -8 -39 -8 -20 0 -31 -5 -30 -12 2 -7 -14 -20 -34 -28
-42 -18 -38 -26 20 -42 l42 -11 -70 -1 c-38 -1 -77 -6 -85 -11 -13 -9 -13 -10
0 -11 8 0 -3 -6 -24 -12 -22 -7 -41 -18 -42 -25 -1 -7 0 -8 3 -2 4 9 43 15 43
6 0 -11 -74 -76 -87 -76 -13 0 -13 -3 -3 -15 21 -26 -15 -18 -48 10 -46 38
-100 27 -60 -13 7 -7 9 -12 4 -12 -4 0 -14 7 -23 15 -16 16 -39 15 -36 -2 1
-6 -46 -11 -115 -12 -64 -1 -127 -5 -140 -8 -21 -5 -22 -6 -5 -18 17 -13 17
-14 1 -20 -9 -4 -14 -13 -12 -20 3 -7 1 -16 -5 -20 -7 -3 -11 3 -11 15 0 16
-4 20 -16 16 -9 -3 -18 -6 -20 -6 -2 0 -4 -6 -4 -12 0 -16 48 -40 52 -26 2 5
16 4 33 -3 l30 -13 -32 -4 c-18 -2 -33 -6 -33 -10 1 -13 121 -64 137 -58 14 6
14 8 -3 21 -18 14 -18 14 9 15 24 0 27 -3 22 -20 -6 -18 -3 -20 18 -14 14 3
34 1 44 -5 21 -12 17 -13 -134 -16 -50 -1 -103 -5 -117 -9 -14 -3 -26 -2 -26
3 0 5 11 12 25 15 30 8 24 26 -8 26 -12 0 -28 4 -36 9 -11 7 -6 12 20 19 32
10 32 10 7 11 -17 1 -28 7 -28 15 0 16 -45 66 -60 66 -5 0 -10 4 -10 8 0 5
-16 25 -36 46 -19 20 -32 41 -29 47 4 6 -2 13 -14 16 -11 3 -23 14 -26 24 -7
22 -50 26 -59 7 -5 -11 -7 -11 -12 0 -3 6 -13 12 -21 12 -9 0 -13 6 -10 14 3
8 2 28 -3 45 -7 26 -5 32 17 46 24 16 25 16 18 -4 -5 -15 -2 -21 9 -21 9 0 16
6 16 14 0 8 3 21 6 30 4 11 -2 19 -17 25 -18 7 -19 10 -6 10 11 1 17 9 17 26
0 21 -5 25 -29 25 -29 0 -51 -15 -31 -22 14 -5 25 -68 11 -68 -6 0 -11 6 -11
14 0 8 -12 37 -26 65 -20 38 -32 51 -48 50 -20 0 -20 -1 -2 -8 12 -5 15 -10 9
-14 -6 -4 -16 0 -23 8 -7 9 -29 15 -51 15 -22 0 -39 5 -39 11 0 6 8 8 20 4 10
-3 31 0 46 8 l28 15 -32 7 c-39 8 -41 30 -4 43 l27 10 -27 1 c-29 1 -38 16
-15 24 6 2 55 2 107 -1 52 -2 92 -1 89 2 -6 6 -113 17 -181 18 -16 1 -28 5
-28 9 0 5 -12 9 -26 9 -14 0 -23 -4 -19 -10 3 -5 15 -10 26 -10 10 0 19 -4 19
-10 0 -5 -9 -10 -20 -10 -11 0 -20 -4 -20 -10 0 -5 9 -10 20 -10 11 0 20 -3
20 -8 0 -16 -74 -29 -165 -28 -52 1 -95 -2 -95 -6 0 -3 -3 -13 -6 -22 -4 -11
-1 -16 10 -16 9 0 16 5 16 10 0 15 17 12 24 -5 3 -8 -1 -21 -9 -29 -17 -17
-20 -36 -5 -36 6 0 10 -4 10 -10 0 -11 -51 9 -62 25 -5 6 -12 5 -18 -5 -8 -11
-9 -8 -4 13 6 26 5 27 -35 27 -23 0 -41 5 -41 11 0 7 11 8 29 4 27 -6 71 10
71 26 0 4 -20 4 -45 1 -50 -5 -59 3 -19 18 35 14 23 26 -31 34 -51 8 -64 20
-32 31 21 7 21 8 -6 12 -17 3 -32 14 -39 28 -6 13 -20 26 -32 29 -34 9 -39 7
-26 -9 10 -13 10 -19 -4 -34 -17 -18 -17 -21 -1 -45 11 -16 15 -35 11 -51 -4
-16 -2 -25 5 -25 6 0 9 -9 6 -20 -3 -11 -1 -23 5 -26 5 -3 7 -13 4 -21 -7 -17
12 -46 23 -38 4 2 8 -9 8 -25 0 -16 -3 -27 -7 -25 -4 2 -5 -6 -3 -19 4 -18 0
-26 -16 -31 -29 -9 -26 -17 11 -40 22 -12 28 -20 18 -23 -8 -3 -16 0 -18 6 -2
7 -9 12 -16 12 -17 0 -48 35 -39 43 3 4 15 7 25 7 25 0 24 36 -2 43 -21 5 -28
27 -9 27 5 0 7 5 4 11 -4 6 -13 8 -21 5 -18 -7 -21 13 -10 80 2 16 -1 20 -15
17 -12 -3 -21 1 -25 11 -8 21 3 33 17 19 8 -8 15 -8 24 0 17 16 7 37 -17 37
-16 0 -19 5 -15 20 5 20 -25 60 -46 60 -4 0 -6 8 -2 19 4 13 0 20 -17 24 -21
6 -21 7 -4 26 17 18 17 19 -4 26 -12 4 -20 13 -18 23 2 12 17 16 66 18 90 2
90 14 -1 14 -69 0 -77 2 -96 26 -11 14 -18 31 -15 38 3 8 -5 16 -21 20 -20 5
-25 11 -20 26 5 16 2 20 -14 20 -28 0 -27 26 1 33 12 4 19 9 16 13 -13 12 -56
-6 -61 -26 -5 -21 -31 -27 -42 -9 -4 6 1 16 10 23 16 12 15 14 -15 20 -23 4
-36 2 -42 -6 -6 -10 -8 -9 -8 3 0 22 32 49 37 32 5 -15 83 -18 83 -3 0 5 -7 7
-15 4 -24 -10 -108 19 -113 38 -2 9 -11 19 -21 21 -14 4 -14 5 2 6 18 1 23 17
7 23 -6 2 -13 21 -17 43 -4 24 -15 47 -30 58 -17 14 -23 29 -23 58 0 21 -4 39
-10 39 -5 0 -7 7 -4 15 4 8 -1 17 -10 21 -9 3 -14 10 -11 14 3 4 -2 10 -10 14
-8 3 -15 12 -15 20 0 8 -5 16 -12 18 -18 6 2 30 21 25 9 -2 37 -1 61 3 39 6
34 8 -37 9 -75 1 -83 3 -83 21 0 23 -28 87 -49 113 -16 19 -2 24 17 5 9 -9 12
-9 12 1 0 9 16 11 62 8 33 -3 55 -1 47 3 -8 5 -45 10 -82 12 -37 1 -67 6 -67
10 0 18 6 22 33 22 31 -1 34 4 10 22 -16 12 -15 13 10 14 16 0 26 4 22 10 -3
5 -12 7 -19 4 -8 -3 -23 4 -34 16 -29 31 -12 70 31 70 17 0 27 3 24 6 -6 7
-27 10 -77 13 -42 2 -2 20 50 23 44 1 44 1 8 5 -21 2 -38 9 -38 14 0 7 13 8
33 4 24 -5 28 -4 17 4 -8 6 -27 11 -41 11 -14 0 -34 8 -43 19 -15 17 -15 19
-1 25 9 3 26 6 36 6 12 0 17 4 13 11 -3 6 -17 8 -30 5 -26 -7 -31 3 -12 22 10
10 10 15 -1 21 -22 14 -2 33 27 26 20 -5 23 -3 15 7 -5 7 -9 30 -8 51 2 40
-22 65 -48 52 -6 -4 -4 0 7 9 10 8 15 20 11 26 -6 9 -10 9 -16 -1 -6 -10 -9
-10 -9 -2 0 16 32 33 67 35 15 1 1 4 -31 7 -55 6 -59 8 -62 33 -1 15 2 30 7
33 22 14 5 25 -38 26 -41 0 -45 2 -24 10 13 5 32 7 42 4 12 -4 22 3 33 26 20
39 20 40 1 33 -25 -10 -109 6 -97 18 7 7 20 7 40 0 16 -5 35 -6 42 -2 8 5 2
10 -19 15 -34 7 -46 19 -36 36 5 7 13 5 25 -6 11 -10 25 -15 32 -12 9 4 8 6
-4 6 -11 1 -15 7 -11 20 3 11 -3 24 -14 32 -23 17 -27 53 -6 70 8 7 31 12 51
11 28 -2 33 0 22 8 -8 5 -32 10 -52 10 -21 0 -38 5 -38 10 0 6 5 10 10 10 6 0
10 5 10 10 0 6 -18 10 -40 10 -22 0 -40 5 -40 10 0 6 24 10 53 11 67 1 112 17
50 18 -43 1 -57 14 -27 25 13 5 14 9 5 20 -9 11 -8 15 5 20 9 4 14 9 11 13 -4
3 -1 15 5 27 7 11 12 24 13 27 1 16 37 39 62 40 20 1 22 3 9 6 -19 5 -46 27
-46 37 0 3 12 3 28 0 16 -3 35 1 47 10 20 15 20 15 -5 16 -23 1 -23 2 -5 10
18 7 19 8 3 15 -26 10 -22 22 10 30 l27 8 -35 10 -35 11 40 6 c38 5 39 6 13
13 -35 9 -36 27 -3 27 16 0 25 6 25 15 0 8 -6 15 -14 15 -14 0 -24 41 -18 73
7 35 24 16 20 -23 -3 -33 0 -40 14 -40 10 0 16 6 13 13 -2 6 -6 41 -10 75 -6
61 -5 63 14 57 13 -4 27 -1 36 8 13 14 9 15 -31 15 -25 0 -48 3 -51 6 -4 3 10
6 30 6 20 0 38 4 41 9 7 11 -22 23 -35 15 -5 -3 -17 0 -26 5 -16 9 -16 10 -2
11 9 0 22 7 29 15 10 12 9 15 -8 15 -22 0 -37 47 -21 66 6 7 4 15 -4 23 -18
14 -30 2 -16 -16 9 -11 1 -13 -47 -11 -43 1 -49 2 -21 5 22 3 37 10 37 17 0 8
7 27 15 42 20 39 19 54 -5 54 -11 0 -20 5 -20 10 0 6 8 10 17 10 15 0 14 2 -4
15 -22 16 -37 55 -21 55 7 0 7 5 -1 13 -8 10 -7 17 1 25 9 9 8 12 -5 12 -9 0
-17 5 -17 10 0 6 7 10 15 10 8 0 15 5 15 10 0 6 5 10 11 10 11 0 44 -29 38
-34 -2 -2 -13 -8 -24 -15 -17 -10 -14 -11 20 -6 22 3 73 6 112 8 43 1 72 6 70
12 -2 6 -26 9 -53 9 -27 -1 -52 3 -56 9 -8 13 10 31 37 39 11 3 28 9 38 13 12
5 17 2 17 -9 0 -9 -5 -16 -11 -16 -5 0 -7 -4 -4 -10 3 -5 14 -10 24 -10 10 0
21 -9 24 -20 4 -16 13 -20 44 -19 37 1 38 1 10 11 -22 8 -26 13 -16 24 9 11 7
14 -14 14 -14 0 -29 4 -32 10 -4 6 7 10 24 10 21 0 31 5 31 16 0 14 2 14 22 0
12 -9 30 -16 40 -16 23 0 23 -16 1 -24 -12 -5 -14 -9 -5 -18 9 -9 15 -7 25 7
8 10 19 15 25 11 6 -3 13 -2 17 4 3 5 -3 10 -14 10 -27 0 -37 19 -18 37 13 14
17 13 36 -6 23 -23 30 -84 8 -76 -7 3 -30 -4 -52 -15 -21 -11 -32 -20 -22 -20
9 0 17 -4 17 -10 0 -5 11 -12 25 -16 26 -7 56 -34 36 -34 -6 0 -11 -4 -11 -8
0 -4 16 -8 35 -9 19 -1 32 3 29 8 -3 5 -13 9 -22 9 -12 1 -10 5 8 15 l25 15
-22 6 c-13 3 -23 11 -23 16 0 5 -17 6 -37 3 l-38 -5 34 16 c18 8 40 22 49 30
13 14 13 17 1 25 -16 10 62 11 99 1 29 -9 30 -26 1 -30 -12 -2 -29 -10 -36
-18 -17 -16 -9 -18 17 -4 26 14 35 -5 13 -27 -10 -10 -19 -29 -20 -43 -1 -20
7 -29 43 -47 46 -23 58 -15 27 19 -18 20 -4 25 28 8 15 -8 19 -7 19 4 0 7 -7
16 -15 20 -26 10 -17 27 11 20 l27 -7 -22 22 c-17 17 -20 26 -11 36 9 10 6 15
-10 20 -26 8 -15 29 12 22 17 -5 19 -2 16 24 -4 23 -1 29 14 29 10 0 18 7 18
15 0 8 5 15 10 15 6 0 10 7 10 15 0 10 10 15 30 15 17 0 30 5 30 10 0 6 10 10
23 10 13 0 28 5 35 12 8 8 16 5 31 -13 11 -13 20 -20 21 -16 0 5 -7 15 -15 23
-16 17 -20 34 -7 34 4 0 23 -11 42 -25 19 -14 39 -25 46 -25 6 0 18 -8 25 -17
12 -15 12 -16 -3 -10 -10 3 -20 2 -23 -4 -4 -5 1 -12 9 -15 9 -3 16 -11 16
-18 0 -7 15 -36 34 -66 26 -40 32 -59 25 -72 -13 -25 -11 -30 10 -23 11 3 22
1 26 -5 4 -6 26 -10 50 -9 29 2 48 -2 59 -13 20 -20 91 -21 107 -2 15 18 29
18 29 1 0 -10 16 -14 50 -16 55 -2 64 9 23 27 -25 10 -25 11 -3 5 14 -3 31 -8
39 -11 9 -3 12 -1 7 6 -5 8 1 12 18 12 14 0 26 5 26 10 0 6 -7 10 -16 10 -8 0
-13 4 -9 10 3 5 12 7 19 4 12 -5 126 60 126 71 0 3 -14 2 -30 -1 -21 -5 -30
-3 -30 6 0 9 11 11 38 8 23 -4 48 0 63 8 13 7 19 13 12 14 -8 0 -7 9 4 30 8
17 12 42 9 55 -7 28 9 42 29 25 10 -8 15 -9 15 -2 0 6 -10 17 -22 23 -13 7
-26 17 -30 23 -4 6 -8 -1 -8 -16 0 -22 -5 -28 -22 -28 -17 0 -19 3 -10 12 7 7
12 20 12 30 0 34 47 22 90 -24 46 -48 49 -58 16 -58 -25 0 -36 -15 -29 -37 3
-7 11 -13 19 -13 22 0 16 -17 -8 -24 -21 -6 -22 -7 -5 -17 9 -5 22 -7 28 -3 7
4 10 1 7 -7 -3 -8 -13 -16 -24 -18 -10 -2 -24 -11 -30 -19 -10 -14 -16 -14
-38 -4 -14 6 -26 10 -26 8 0 -10 38 -45 44 -39 10 10 7 -16 -5 -38 -5 -11 -15
-17 -21 -13 -6 4 -8 -1 -3 -15 5 -16 1 -23 -19 -33 -34 -15 -33 -30 1 -22 26
7 27 6 11 -9 -9 -9 -21 -17 -27 -17 -6 0 -11 -7 -11 -15 0 -9 6 -12 16 -8 12
4 15 2 12 -8 -3 -8 -11 -13 -17 -11 -6 1 -11 -2 -11 -8 0 -5 -11 -10 -25 -10
-14 0 -25 -4 -25 -10 0 -5 7 -10 16 -10 8 0 12 -4 9 -10 -3 -5 -15 -10 -26
-10 -12 0 -17 -4 -13 -11 3 -6 17 -9 30 -6 14 2 27 0 30 -4 5 -9 -10 -13 -30
-10 -5 1 -22 -1 -38 -4 -27 -6 -28 -8 -11 -20 10 -7 16 -15 13 -17 -3 -2 -18
-14 -34 -26 -22 -17 -25 -22 -11 -22 17 0 16 -3 -4 -24 -26 -28 -21 -46 13
-46 25 0 53 40 42 59 -10 16 13 14 29 -3 12 -12 11 -16 -11 -31 -14 -9 -23
-23 -20 -30 6 -17 -25 -30 -34 -14 -6 8 -9 7 -13 -2 -4 -10 -6 -10 -6 -1 -1 6
-8 12 -16 12 -15 0 -35 -37 -35 -66 0 -23 26 -16 38 10 9 20 16 24 41 20 32
-5 71 22 64 43 -3 7 4 9 16 6 12 -3 18 -9 15 -14 -3 -5 7 -9 21 -9 14 0 24 4
20 9 -3 5 5 17 17 26 22 16 22 16 -22 13 -34 -2 -45 1 -45 11 0 10 13 15 43
17 59 3 94 13 87 24 -3 6 -15 10 -26 10 -10 0 -19 5 -19 10 0 6 31 10 73 11
39 1 83 5 97 9 24 8 14 9 -137 14 -26 1 -44 16 -19 16 9 0 14 5 11 10 -4 6 14
10 47 10 38 0 49 -3 38 -10 -12 -8 -10 -10 8 -10 13 0 20 4 17 10 -3 6 0 10 9
10 8 0 17 6 19 13 4 9 8 8 16 -3 5 -8 13 -11 18 -7 4 5 1 12 -7 17 -13 8 -12
12 5 24 20 15 20 15 -2 16 -13 0 -23 -6 -23 -12 0 -9 -3 -9 -9 1 -6 10 -30 14
-75 15 -55 1 -63 3 -50 13 9 7 20 10 25 8 4 -3 10 -1 13 4 4 5 22 7 41 4 29
-5 33 -3 31 13 -2 11 -1 14 1 7 6 -18 31 -23 129 -27 75 -3 93 0 116 16 20 14
32 16 46 9 10 -5 24 -6 31 -2 17 11 -9 21 -54 21 -19 0 -36 3 -39 8 -2 4 16 7
41 7 27 0 48 5 50 12 3 7 -3 9 -16 6 -38 -10 -22 13 27 36 26 13 41 26 34 28
-7 3 -18 0 -25 -5 -14 -12 -52 -16 -122 -13 -40 1 -46 4 -32 12 9 6 25 8 35 5
9 -2 28 -8 41 -11 16 -5 21 -4 17 4 -5 7 3 11 21 11 35 1 73 31 73 59 0 12 -4
21 -10 21 -5 0 -10 7 -10 15 0 11 -6 13 -22 7 -20 -6 -37 -7 -85 -3 -7 1 -13
5 -13 10 0 4 11 6 25 3 29 -5 75 5 75 16 0 5 -17 13 -38 19 l-37 11 38 -5 c30
-4 37 -2 37 11 0 9 7 16 15 16 24 0 17 20 -7 21 -13 1 -78 1 -145 0 -68 -2
-123 1 -123 6 0 5 37 9 83 9 92 0 202 7 187 12 -16 6 -12 32 5 32 8 0 15 5 15
10 0 6 -6 10 -14 10 -16 0 -18 37 -3 58 7 9 4 12 -12 12 -16 0 -21 -7 -22 -27
-2 -25 -2 -25 -6 -5 -3 17 -9 21 -24 17 -27 -9 -43 3 -28 21 9 11 6 16 -15 25
-30 14 -33 27 -8 45 24 19 49 17 61 -3 12 -23 22 -13 15 15 -4 12 -15 24 -26
28 -13 4 -17 11 -13 22 4 10 9 29 12 45 5 25 9 27 54 27 61 0 77 20 17 21 -24
1 -54 1 -68 0 -20 -2 -22 0 -10 8 8 6 25 11 37 11 26 0 39 16 19 23 -7 3 -33
4 -57 1 l-44 -4 30 14 c18 9 44 13 66 9 20 -3 45 0 55 6 14 8 -13 10 -110 10
-78 0 -133 4 -139 10 -12 12 29 16 110 11 38 -2 73 15 73 33 0 11 -145 5 -152
-6 -5 -8 -8 -6 -8 5 0 16 -8 20 -65 31 -19 4 -19 4 -1 12 11 5 26 3 37 -3 19
-12 145 -19 156 -8 3 3 -6 6 -21 6 -22 0 -27 4 -22 16 4 11 1 14 -12 12 -9 -2
-16 -10 -14 -16 1 -7 -5 -12 -13 -12 -8 0 -15 7 -15 15 0 11 -18 15 -77 17
-42 2 -78 8 -80 13 -2 7 20 10 64 8 73 -3 73 -1 4 17 -23 6 -40 14 -37 17 3 3
45 6 93 5 l88 0 -73 8 c-40 4 -80 11 -88 14 -9 4 -22 2 -28 -3 -16 -12 -86
-24 -86 -13 0 4 10 13 23 18 12 6 17 9 10 7 -7 -1 -15 2 -18 7 -3 5 -12 7 -20
4 -8 -4 -18 1 -21 10 -3 9 -12 16 -19 16 -6 0 -25 12 -40 26 -24 22 -34 25
-67 20 -48 -8 -48 -1 0 21 l37 17 -47 4 c-27 2 -48 7 -48 12 0 10 -66 56 -110
77 -24 11 -24 11 12 12 20 1 40 6 43 11 9 15 -148 13 -164 -2 -6 -7 -16 -14
-22 -14 -5 -1 -12 -2 -15 -3 -3 0 2 -8 10 -17 23 -23 20 -37 -8 -30 -16 4 -26
1 -30 -9 -4 -12 3 -15 34 -15 22 0 40 -4 40 -10 0 -9 -62 -16 -99 -10 -27 3
-61 -11 -61 -25 0 -8 -7 -15 -15 -15 -8 0 -15 5 -15 10 0 6 5 10 11 10 5 0 7
5 4 10 -3 6 -26 10 -51 10 -32 0 -44 4 -44 15 0 12 12 13 67 9 69 -5 113 0
113 15 0 4 -22 6 -50 3 -43 -4 -50 -2 -50 13 0 14 7 16 38 13 38 -5 82 8 82
24 0 6 -17 7 -40 3 -55 -9 -80 1 -80 32 0 20 4 24 20 20 10 -3 27 1 37 8 17
13 17 14 1 20 -34 13 -6 27 39 20 35 -5 44 -4 41 6 -6 18 -76 32 -108 21 -19
-7 -30 -5 -44 10 -11 10 -15 18 -10 19 66 5 128 18 121 26 -12 11 -157 14
-157 3 0 -7 -8 -9 -22 -4 -13 4 -35 7 -50 6 -16 0 -28 4 -28 9 0 5 15 9 33 9
39 0 51 8 36 26 -7 8 -7 14 1 19 5 3 10 1 10 -4 0 -6 5 -11 10 -11 6 0 10 6
10 14 0 8 9 18 20 21 11 3 20 10 20 15 0 9 -143 5 -176 -5 -24 -7 -41 9 -23
21 7 4 32 7 56 6 51 0 54 5 12 20 -22 8 -27 13 -18 19 7 4 11 11 8 14 -6 5
-660 9 -764 4 l-50 -2 45 -6 c25 -3 101 -6 170 -5 69 1 119 -1 113 -3 -7 -3
-13 -8 -13 -13 0 -7 23 -11 77 -12 13 0 23 -4 23 -9 0 -5 5 -9 11 -9 25 0 -14
29 -44 33 -18 2 18 4 78 5 74 1 105 -1 95 -8 -8 -5 -30 -10 -47 -10 -18 0 -33
-4 -33 -9 0 -5 40 -7 89 -6 49 1 95 -2 103 -6 8 -5 -15 -9 -57 -9 -78 0 -114
-13 -74 -25 13 -5 37 -7 54 -7 16 1 42 -3 58 -10 22 -8 25 -13 16 -24 -6 -8
-16 -14 -21 -14 -6 0 -6 6 1 14 9 10 8 15 -1 18 -19 6 -88 2 -123 -7 -28 -8
-29 -7 -15 10 13 17 13 18 -1 13 -11 -4 -16 -1 -15 10 0 9 -7 18 -16 20 -12 2
-18 -3 -18 -16 0 -20 -33 -32 -91 -32 -23 0 -29 -4 -29 -22 1 -21 2 -22 14 -5
14 19 80 24 91 7 3 -5 28 -10 56 -10 29 0 49 -5 49 -11 0 -7 -26 -9 -82 -4
-50 4 -93 3 -108 -4 -19 -7 -20 -10 -7 -10 10 -1 16 -5 13 -10 -4 -5 27 -7 73
-4 61 4 84 2 101 -10 30 -21 7 -32 -24 -12 -15 10 -40 15 -63 13 -34 -3 -38
-6 -35 -28 2 -14 6 -27 8 -29 2 -3 39 -5 82 -6 53 -1 86 -7 107 -19 l30 -18
-30 7 c-16 4 -31 10 -33 14 -1 4 -49 6 -105 4 -71 -3 -98 -1 -87 6 8 5 12 13
8 16 -3 3 -13 -1 -21 -10 -16 -16 -37 -20 -37 -7 0 4 -19 7 -43 8 -23 0 -34
-1 -24 -3 17 -4 17 -6 2 -23 -16 -18 -15 -18 32 -17 40 2 48 -1 47 -15 -1 -11
5 -18 15 -18 11 0 17 7 17 20 -1 10 2 19 7 20 4 0 30 0 57 0 47 0 50 -2 50
-25 0 -20 -5 -25 -25 -25 -16 0 -25 -6 -25 -15 0 -17 16 -20 25 -5 8 13 43 3
63 -17 21 -21 7 -28 -20 -9 -28 20 -48 20 -48 1 0 -14 11 -19 38 -16 16 2 16
-16 -1 -23 -6 -3 11 -5 38 -4 71 1 85 -1 85 -11 0 -5 -30 -8 -67 -7 -67 2
-123 -10 -123 -28 0 -4 13 -6 30 -4 16 2 31 1 32 -2 2 -4 15 -10 31 -14 20 -5
29 -2 33 9 13 32 24 13 24 -40 0 -43 3 -55 16 -55 8 0 13 -4 10 -9 -3 -5 1
-12 10 -15 25 -10 34 -7 34 9 0 8 7 15 15 15 19 0 8 -28 -13 -34 -10 -2 -32
-7 -49 -11 -19 -4 -33 -13 -33 -21 0 -25 -92 -37 -98 -13 -4 23 49 33 65 13 8
-11 13 -12 18 -4 9 15 -2 25 -42 38 -20 7 -35 7 -38 1 -4 -5 -19 -9 -35 -9
-22 0 -30 5 -33 23 -3 12 -4 6 -4 -13 2 -30 5 -35 24 -32 12 2 24 -2 28 -8 3
-5 1 -10 -4 -10 -17 0 -13 -26 5 -41 15 -12 15 -14 -5 -19 -28 -6 -28 -24 -1
-28 30 -5 24 -24 -7 -22 -16 1 -48 1 -73 0 l-45 -1 47 -13 c26 -7 62 -11 80
-9 l33 3 -35 -13 c-19 -7 -37 -10 -40 -7 -10 11 -93 5 -97 -7 -3 -8 4 -13 16
-13 11 0 23 -4 26 -10 3 -5 16 -10 28 -10 17 0 19 -2 8 -9 -9 -6 -22 -6 -33 0
-10 6 -23 7 -28 4 -6 -3 -20 1 -32 9 -28 20 -48 20 -48 1 0 -8 8 -15 18 -15
10 0 22 -4 28 -10 5 -5 41 -14 79 -19 52 -6 60 -9 30 -10 -30 -1 -36 -4 -25
-11 11 -7 4 -10 -27 -10 -43 0 -47 -4 -46 -47 1 -20 -36 -15 -49 7 -11 16 -24
20 -72 20 -54 0 -58 -1 -40 -14 10 -8 21 -10 22 -5 6 15 52 10 70 -8 13 -13
14 -17 4 -21 -18 -6 -72 -59 -72 -71 0 -13 55 -24 81 -16 16 5 20 3 17 -6 -4
-10 -23 -14 -71 -13 -61 1 -86 -8 -54 -19 26 -9 -5 -21 -56 -20 l-52 1 60 -9
c33 -5 66 -7 73 -4 8 3 12 0 9 -7 -3 -9 -23 -12 -67 -10 -70 4 -114 -4 -105
-19 4 -5 1 -16 -5 -24 -10 -12 -9 -15 9 -15 12 0 21 6 21 15 0 11 11 15 36 15
21 0 33 -4 29 -10 -4 -6 6 -10 22 -10 15 0 45 -5 66 -11 31 -8 42 -8 55 4 10
8 26 18 37 22 19 8 19 9 -4 13 -13 2 -28 -1 -34 -7 -14 -14 -54 -14 -62 -1 -3
6 1 10 10 10 19 0 36 40 24 56 -6 8 -2 10 16 6 14 -2 25 -11 25 -18 0 -8 9
-14 20 -14 13 0 25 -12 35 -36 10 -24 19 -33 27 -28 10 5 10 4 1 -6 -9 -9 -9
-19 -2 -32 9 -17 8 -18 -10 -9 -14 8 -22 8 -27 0 -3 -6 -15 -9 -25 -6 -11 3
-19 1 -19 -4 0 -5 24 -9 53 -10 28 0 67 -6 86 -13 28 -10 31 -14 18 -24 -11
-9 -22 -10 -41 -2 -15 5 -47 10 -71 10 -43 0 -57 11 -59 50 -1 21 -52 25 -72
6 -16 -17 -74 -22 -74 -8 0 5 -15 7 -32 6 -18 -2 -25 -1 -15 2 9 3 17 10 17
15 0 14 -38 11 -43 -3 -4 -9 -6 -9 -6 1 -1 11 -5 10 -16 -5 -12 -15 -16 -16
-24 -5 -6 9 -18 11 -42 6 -45 -10 -54 -16 -38 -25 9 -6 2 -12 -22 -18 -19 -6
-26 -11 -16 -11 22 -1 22 -20 1 -28 -10 -4 -20 0 -26 10 -5 10 -15 17 -23 17
-7 0 -15 5 -17 11 -2 5 -11 11 -20 13 -26 3 -34 16 -10 16 23 0 38 15 23 24
-5 4 -12 2 -16 -4 -3 -5 -15 -10 -26 -10 -10 0 -19 -6 -20 -12 0 -7 -4 -4 -9
7 -14 31 -12 37 11 30 15 -5 20 -3 17 6 -2 7 -15 16 -29 20 -19 6 -15 7 19 8
31 1 42 -3 42 -14 0 -8 5 -15 11 -15 5 0 7 5 3 12 -4 6 1 17 10 24 30 21 9 33
-52 28 -63 -5 -60 2 9 15 l44 9 -42 1 c-24 1 -43 6 -43 11 0 6 5 10 11 10 6 0
8 7 5 16 -4 9 -2 22 4 29 8 9 8 15 0 20 -5 3 -10 1 -10 -4 0 -6 -7 -11 -16
-11 -13 0 -14 3 -4 15 9 11 9 17 -2 29 -16 16 -102 23 -131 11 -10 -4 -21 -4
-24 -1 -4 4 3 9 15 13 12 3 22 9 22 13 0 5 25 6 55 3 35 -4 55 -2 55 5 0 10
-52 22 -100 23 -13 1 -32 7 -43 14 -17 12 -17 13 5 20 13 4 31 6 42 5 10 -1
35 1 54 5 27 5 32 9 21 16 -21 13 -83 11 -97 -3 -10 -10 -15 -10 -22 2 -5 9
-5 17 1 20 5 4 3 20 -7 39 -14 28 -14 35 -3 42 10 6 3 9 -21 9 -25 0 -31 3
-21 9 17 11 25 117 10 127 -5 3 -7 15 -3 26 3 12 1 24 -6 28 -8 5 -9 13 -4 21
12 19 14 59 3 59 -12 0 -12 42 1 74 7 20 16 26 40 26 16 0 30 5 30 10 0 6 -9
10 -19 10 -26 0 -36 17 -21 35 7 9 12 47 12 96 -1 72 1 79 13 63 14 -18 14
-18 15 3 0 19 6 22 48 25 l47 3 -40 8 c-67 14 -69 15 -55 32 10 12 16 13 27 4
19 -16 38 3 28 28 -5 12 -9 14 -12 6 -10 -28 -33 -13 -33 21 0 30 4 35 28 39
l27 4 -28 2 c-16 0 -26 5 -22 11 4 6 11 8 16 5 5 -4 9 -1 9 4 0 6 -4 11 -10
11 -5 0 -10 7 -10 16 0 8 4 13 9 10 5 -3 12 1 15 10 9 24 7 36 -6 28 -8 -5 -9
7 -5 47 4 30 7 73 7 97 0 24 4 41 9 38 5 -3 7 -15 4 -26 -3 -12 2 -28 10 -38
11 -12 13 -22 7 -32 -15 -23 -12 -29 10 -23 17 4 19 11 14 42 -4 23 1 60 14
101 11 36 23 81 27 100 7 41 32 75 63 84 23 8 82 73 82 92 0 18 73 45 82 31
10 -16 22 -1 14 18 -3 10 -11 13 -18 9 -15 -9 39 58 92 114 19 20 35 39 35 42
2 21 41 59 65 64 21 4 30 11 30 25 0 11 15 30 33 42 17 13 47 38 65 56 19 18
39 33 45 33 19 0 56 41 50 56 -4 10 3 14 22 14 18 0 29 6 32 20 3 11 10 20 17
20 6 1 27 14 46 30 19 17 41 30 49 30 8 0 12 3 9 6 -3 3 5 16 17 29 21 20 36
24 141 29 130 7 162 15 63 17 -35 1 -98 4 -139 6 -41 3 -87 5 -102 6 -22 0
-24 2 -13 14 13 12 36 14 143 14 125 0 192 5 189 14 -2 9 -8 10 -94 13 -40 2
-53 6 -53 17 0 8 9 15 19 15 11 0 23 5 27 11 4 7 9 8 13 1 10 -17 91 -19 91
-2 0 5 -8 6 -17 3 -17 -6 -17 -6 -1 10 9 9 24 17 32 17 9 0 32 9 52 19 l35 19
-35 0 c-22 0 -37 -6 -40 -15 -4 -8 -12 -13 -19 -10 -8 3 -28 -2 -45 -10 -19
-9 -39 -12 -49 -7 -16 7 -15 8 5 12 44 7 16 27 -43 30 -47 3 -62 -1 -80 -18
-22 -21 -43 -16 -24 6 8 10 -69 13 -402 13 -316 0 -415 -2 -421 -12 -6 -9 -10
-8 -18 3 -8 13 -14 10 -32 -13 -65 -81 -61 -79 -88 -68 -25 10 -24 10 7 10 35
1 40 7 53 51 l8 30 -2444 0 -2444 0 0 -3790z m7735 -1201 c6 -6 5 -17 -4 -31
-10 -16 -11 -23 -2 -26 9 -3 9 -7 0 -18 -9 -11 -7 -14 10 -14 22 0 29 -16 10
-22 -6 -2 -11 -26 -11 -55 l0 -51 -29 17 c-16 9 -27 22 -24 28 2 7 -1 12 -8
10 -7 -1 -11 5 -11 14 1 14 -11 17 -72 17 -70 1 -74 0 -64 -18 7 -13 7 -21 -1
-25 -6 -4 -8 -13 -5 -21 3 -8 1 -14 -5 -14 -6 0 -7 -4 -4 -10 4 -6 -5 -10 -20
-10 -14 0 -24 -4 -21 -9 18 -29 -77 -16 -111 15 l-24 22 23 -6 c13 -3 28 -12
34 -20 6 -8 16 -12 22 -8 18 11 14 26 -5 26 -14 1 -12 4 7 14 27 15 51 10 29
-6 -11 -7 -9 -8 4 -4 10 3 24 6 30 6 8 0 7 4 -1 12 -9 9 -7 17 10 35 l21 23
-39 1 -39 1 43 10 c42 9 54 22 30 31 -10 4 -10 8 -2 14 6 4 10 23 9 41 -2 42
11 51 20 12 4 -16 12 -30 18 -30 8 0 7 -4 -1 -12 -7 -7 -12 -22 -12 -34 0 -20
5 -22 33 -20 17 2 40 6 50 11 10 4 29 3 43 -4 14 -6 30 -8 36 -5 11 7 -31 29
-74 38 -16 4 -28 10 -28 15 0 4 12 7 28 4 23 -3 24 -2 7 6 -19 8 -18 9 7 16
15 4 32 4 37 0 6 -3 11 -1 11 4 0 6 -13 11 -29 11 -17 0 -33 5 -36 10 -3 6 1
10 9 10 9 0 16 5 16 10 0 13 69 3 85 -11z m325 -349 c0 -11 -4 -20 -10 -20 -5
0 -10 -8 -10 -17 1 -17 1 -17 14 0 18 23 30 21 46 -8 10 -19 19 -24 33 -19 16
5 19 3 14 -11 -4 -9 -2 -25 3 -36 10 -17 22 -19 110 -19 69 0 100 -4 102 -12
3 -9 10 -8 23 5 14 15 15 21 5 27 -9 6 -4 13 19 25 40 20 55 10 21 -15 -20
-15 -22 -21 -11 -34 9 -10 11 -28 6 -56 -6 -38 -25 -57 -25 -25 0 8 -5 15 -11
15 -6 0 -9 6 -6 13 2 6 11 11 21 9 9 -2 16 4 16 13 0 19 -26 20 -34 0 -3 -8
-16 -15 -28 -15 -21 -1 -22 -2 -5 -14 20 -16 22 -26 4 -26 -7 0 -17 -10 -22
-22 -8 -17 -22 -25 -60 -32 -27 -4 -59 -12 -70 -16 -11 -5 -27 -11 -35 -13
-11 -4 -9 -6 4 -6 11 -1 28 -9 38 -18 15 -13 21 -14 27 -5 5 9 19 10 47 4 l39
-8 -42 -7 c-23 -4 -45 -12 -49 -18 -5 -9 4 -10 32 -5 36 6 38 5 20 -9 -11 -8
-27 -15 -36 -15 -8 0 -32 -11 -51 -25 -20 -13 -39 -22 -41 -19 -3 2 -11 -2
-18 -11 -7 -8 -19 -15 -26 -15 -8 0 -14 -4 -14 -10 0 -5 -6 -10 -14 -10 -7 0
-27 -7 -42 -15 -16 -8 -43 -15 -61 -15 -29 0 -31 3 -29 27 2 19 10 30 27 34
l24 6 -24 10 c-16 6 -20 12 -13 17 18 11 14 23 -9 29 -13 3 -18 10 -14 17 4 7
7 52 6 101 -2 88 11 119 23 58 6 -33 28 -36 34 -4 3 10 0 15 -7 11 -6 -4 -11
-1 -11 6 0 7 -6 25 -14 40 -10 20 -11 28 -3 31 8 3 5 10 -7 20 -19 14 -18 16
27 57 26 24 47 49 47 57 0 7 5 13 10 13 6 0 10 -9 10 -20z m-309 -160 c12 -7
19 -21 19 -40 0 -17 4 -38 9 -48 17 -34 32 -92 26 -102 -3 -5 -14 -10 -24 -10
-20 0 -47 -25 -34 -32 4 -3 2 -3 -5 -1 -7 1 -22 -2 -33 -7 -14 -8 -26 -7 -46
4 l-28 15 34 1 c29 0 32 2 21 15 -7 8 -20 15 -29 15 -10 0 -39 7 -66 16 -38
14 -52 15 -67 5 -17 -11 -19 -10 -16 6 2 12 16 20 41 24 20 3 40 9 43 12 13
12 -9 27 -39 27 -22 0 -28 3 -20 11 6 6 40 11 77 12 55 2 66 5 66 20 0 20 11
22 27 6 14 -14 33 -3 33 17 0 12 -9 15 -34 13 -39 -4 -58 7 -36 21 20 13 57
12 81 0z m-2681 -960 c0 -5 -7 -10 -15 -10 -8 0 -15 -4 -15 -10 0 -5 -7 -10
-16 -10 -10 0 -14 -6 -10 -15 7 -19 -25 -37 -44 -25 -20 12 -47 -19 -42 -47 3
-16 0 -23 -12 -23 -9 0 -16 -8 -17 -17 -1 -38 -8 -57 -23 -65 -14 -8 -13 -12
4 -31 11 -12 18 -27 15 -35 -3 -7 -5 -25 -5 -38 0 -20 -5 -24 -27 -23 -25 2
-26 2 -5 6 20 4 23 9 17 31 -6 25 -30 52 -46 52 -19 0 -29 -29 -19 -55 6 -15
7 -32 3 -38 -4 -7 -6 -21 -5 -32 2 -17 1 -18 -8 -5 -10 12 -11 11 -7 -9 4 -17
1 -25 -14 -28 -12 -3 -19 -14 -19 -29 0 -13 -4 -24 -10 -24 -5 0 -10 5 -10 11
0 6 -9 8 -22 3 -19 -6 -18 -2 10 32 18 21 32 43 32 49 0 17 24 65 33 65 4 0 7
5 7 11 0 6 -12 9 -27 7 -16 -2 -27 -8 -26 -15 5 -25 -36 -100 -78 -140 -38
-38 -40 -43 -21 -43 12 0 22 -4 22 -10 0 -5 12 -10 28 -10 l27 -1 -28 -15
c-35 -19 -96 -84 -97 -103 0 -12 3 -12 12 -3 17 17 29 15 22 -3 -4 -8 -11 -15
-16 -15 -6 0 -25 -17 -44 -37 -26 -28 -31 -40 -23 -50 6 -7 15 -10 20 -7 14 8
69 -19 69 -34 0 -22 -30 -25 -65 -6 -26 14 -37 16 -46 7 -9 -9 -7 -11 8 -7 13
4 22 0 26 -10 4 -9 2 -16 -3 -16 -6 0 -10 -7 -10 -16 0 -12 -12 -15 -57 -15
-32 0 -76 -1 -97 -1 -27 0 -44 6 -54 19 -12 16 -10 19 27 27 23 5 41 13 41 18
0 5 -4 7 -9 3 -5 -3 -13 0 -16 6 -8 13 25 40 42 34 7 -2 20 4 29 13 10 9 21
17 25 17 12 0 109 107 109 121 0 8 9 19 20 26 17 11 29 48 15 48 -11 0 -55
-44 -55 -55 0 -21 -81 -105 -101 -105 -16 0 -18 5 -13 27 8 31 12 37 25 39 5
1 13 2 18 3 9 1 44 61 36 61 -2 0 -12 -9 -22 -19 -10 -11 -29 -21 -43 -23 -16
-2 -24 -9 -23 -18 2 -10 -10 -21 -32 -29 -32 -11 -48 -31 -25 -31 6 0 10 5 10
10 0 6 8 10 18 10 15 -1 15 -2 -3 -16 -17 -12 -18 -16 -5 -24 8 -5 11 -13 6
-17 -5 -4 -11 -2 -13 5 -3 6 -13 12 -24 12 -10 0 -19 5 -19 11 0 19 41 69 56
69 11 0 13 6 9 21 -6 19 -3 20 29 18 33 -3 38 0 56 34 11 20 20 43 20 50 0 8
9 22 20 32 19 18 20 17 20 -3 0 -12 3 -22 8 -22 11 1 43 70 32 70 -5 0 -12 -4
-15 -10 -13 -21 -24 -9 -13 15 11 25 28 34 28 15 0 -19 20 -10 30 13 14 34 36
57 53 57 9 0 19 5 22 10 3 6 -1 10 -9 10 -20 0 -20 10 1 40 26 37 40 50 56 50
15 0 32 27 28 44 -1 5 5 6 13 3 8 -3 24 6 37 20 19 20 20 25 7 20 -12 -4 -18
-1 -18 8 0 11 11 15 39 15 34 0 38 3 34 19 -5 21 29 46 52 37 8 -3 30 8 51 25
37 29 64 37 64 19z m1154 -196 c20 -8 21 -34 1 -34 -8 0 -15 -7 -15 -16 0 -11
6 -15 20 -11 11 3 18 1 15 -3 -3 -5 4 -11 15 -15 11 -3 20 -10 20 -15 0 -5 10
-11 23 -13 l22 -4 -22 -8 c-22 -7 -32 -25 -14 -25 5 0 7 -9 4 -20 -5 -18 0
-20 53 -20 36 0 54 -4 49 -9 -12 -12 -77 -14 -121 -5 -21 4 -34 1 -39 -7 -5
-7 -4 -10 3 -5 6 3 14 1 17 -5 4 -5 21 -10 39 -9 64 4 106 0 106 -10 0 -5 -20
-10 -45 -10 -25 0 -45 -3 -45 -8 0 -4 20 -6 45 -4 36 3 45 1 45 -12 0 -12 -10
-16 -40 -16 -22 0 -40 -4 -40 -10 0 -5 24 -10 53 -10 50 0 109 -20 122 -40 3
-5 -3 -9 -12 -9 -10 1 -28 -2 -41 -6 -19 -6 -22 -4 -20 15 3 21 -1 22 -67 25
-51 3 -73 8 -82 21 -7 9 -9 22 -5 28 4 7 8 2 10 -11 5 -34 17 -27 17 9 0 28
-3 32 -25 32 -19 0 -25 -5 -24 -22 1 -30 -60 -43 -84 -18 -10 10 -12 16 -7 15
20 -3 35 1 35 10 0 6 -21 13 -46 17 -32 4 -42 9 -33 15 8 5 31 6 53 3 30 -5
37 -3 34 7 -3 8 -22 15 -47 17 -42 3 -49 22 -7 22 31 0 37 9 24 33 -8 16 -7
23 8 34 18 13 18 15 1 24 -13 8 -15 14 -7 29 15 28 13 31 -17 24 -25 -7 -27
-6 -15 9 8 9 23 18 35 20 12 2 25 5 29 6 3 0 13 -2 22 -5z m-1166 -389 c3 -3
-10 -5 -29 -5 -32 0 -59 -14 -59 -31 0 -4 16 -6 35 -5 25 2 35 -1 35 -11 0
-10 -6 -13 -16 -9 -9 4 -23 1 -30 -5 -7 -6 -17 -9 -21 -6 -4 3 -8 -10 -9 -28
0 -35 -30 -105 -44 -105 -5 0 -12 5 -15 10 -10 16 -25 12 -25 -6 0 -9 -11 -27
-25 -40 -14 -13 -25 -29 -25 -35 0 -7 15 5 34 27 26 30 37 36 46 27 10 -9 8
-18 -9 -42 -13 -17 -26 -31 -31 -31 -5 0 -10 -14 -12 -31 -4 -41 -34 -61 -52
-36 -14 18 -62 25 -51 7 3 -5 15 -10 26 -10 27 0 24 -20 -3 -21 -18 0 -16 -3
10 -12 42 -15 46 -31 9 -35 -30 -4 -27 -22 4 -22 10 0 19 -4 19 -9 0 -13 -67
-23 -101 -16 -23 5 -29 12 -27 28 3 20 -1 22 -34 19 -20 -1 -39 1 -42 6 -3 5
6 25 19 45 14 20 25 41 25 47 0 5 15 19 33 30 17 11 26 20 20 20 -17 0 -16 29
2 60 11 19 14 21 15 8 0 -25 6 -23 40 15 23 24 30 40 28 67 -3 63 13 96 45 91
4 -1 17 4 29 10 19 10 20 9 13 -7 -14 -34 -11 -58 9 -62 15 -3 17 0 12 14 -5
12 3 28 26 52 l33 34 -40 -2 c-65 -4 -75 3 -15 10 57 6 140 4 148 -5z"/>
<path d="M9035 7555 c17 -14 33 -25 38 -25 12 0 8 -18 -5 -23 -7 -2 -3 -2 9
-1 24 4 148 -88 148 -110 0 -15 50 -66 64 -66 16 0 35 -40 19 -41 -7 -1 -3 -4
9 -7 21 -7 77 -68 197 -213 55 -67 69 -93 51 -97 -5 -1 -10 2 -10 8 0 14 -24
34 -32 26 -4 -4 -1 -12 7 -17 11 -7 6 -9 -17 -4 -18 4 -34 2 -38 -4 -4 -7 4
-11 19 -11 25 0 36 -15 16 -22 -5 -1 10 -3 34 -3 24 0 42 4 39 9 -3 5 0 7 6 5
7 -3 12 -8 11 -13 -1 -5 12 -18 30 -29 17 -11 29 -21 27 -24 -8 -7 -57 9 -57
18 0 18 -94 9 -120 -11 -20 -15 -21 -20 -8 -20 9 0 20 5 23 10 9 15 87 12 108
-4 22 -17 22 -26 -3 -26 -11 0 -20 -4 -20 -10 0 -5 -13 -10 -29 -10 -17 0 -33
5 -36 10 -3 6 -12 10 -18 9 -9 0 -9 -2 0 -5 7 -3 9 -12 6 -21 -6 -14 1 -15 45
-10 31 4 52 2 52 -3 0 -6 6 -10 13 -10 8 0 24 -9 37 -20 18 -16 20 -20 7 -20
-10 0 -17 5 -17 10 0 6 -9 10 -20 10 -11 0 -20 5 -20 10 0 16 -27 12 -45 -6
-9 -9 -14 -23 -11 -30 6 -15 -8 -16 -126 -16 -57 1 -84 -17 -30 -19 21 -1 22
-2 7 -6 -11 -3 -29 -12 -40 -20 -19 -15 -19 -15 7 -9 15 3 29 2 32 -3 3 -5 15
-7 26 -4 25 7 26 -5 3 -23 -16 -12 -10 -13 40 -14 58 0 77 15 32 26 -25 6 -35
24 -14 24 5 0 7 5 4 10 -3 6 -16 10 -27 10 -12 0 -19 3 -15 6 3 3 34 3 69 -2
54 -7 59 -9 33 -15 -16 -3 -23 -7 -14 -8 21 -1 34 -31 14 -31 -23 0 -18 -16
10 -28 24 -11 25 -10 25 23 0 24 5 35 14 35 24 0 29 -20 10 -35 -18 -14 -18
-14 1 -15 19 -1 19 -2 3 -14 -10 -7 -15 -16 -11 -19 3 -4 1 -7 -5 -7 -6 0 -13
4 -16 9 -5 7 -68 12 -175 13 -12 0 -28 -5 -35 -12 -8 -9 -4 -10 17 -5 15 4 27
3 27 -2 0 -5 25 -9 55 -10 30 -1 55 3 55 8 0 6 7 6 18 0 9 -5 25 -12 35 -15
30 -10 20 -29 -13 -22 -22 4 -30 2 -30 -9 0 -11 -12 -15 -42 -16 -38 -1 -40
-2 -14 -8 40 -8 39 -25 -2 -29 -32 -3 -33 -4 -15 -18 17 -14 16 -15 -9 -9 -28
5 -40 -9 -15 -18 6 -2 9 -8 5 -12 -4 -4 -21 -2 -38 5 -23 9 -33 10 -44 1 -8
-7 -25 -9 -40 -5 -19 4 -28 2 -32 -10 -3 -9 -13 -16 -21 -16 -8 0 -11 5 -8 10
8 13 -36 13 -70 0 -30 -12 -82 -13 -182 -6 -40 3 -74 2 -77 -3 -7 -10 78 -23
99 -15 27 11 16 -12 -12 -26 -16 -7 -23 -15 -16 -17 7 -3 26 5 43 17 25 18 30
19 30 5 0 -14 3 -14 30 0 33 17 100 20 100 5 0 -5 -13 -10 -29 -10 -16 0 -31
-6 -34 -13 -3 -9 -18 -13 -39 -11 -18 1 -64 -2 -101 -7 -38 -5 -79 -6 -93 -3
-26 7 -32 28 -11 38 6 3 1 3 -13 0 -40 -10 -52 -25 -48 -61 4 -32 -18 -56 -31
-34 -4 6 -12 6 -20 2 -7 -5 -10 -14 -7 -20 5 -7 -1 -10 -16 -10 -13 1 -31 -2
-40 -6 -13 -5 -18 -3 -18 9 0 9 7 16 15 16 8 0 15 4 15 9 0 5 16 12 35 15 42
8 49 35 8 29 -16 -2 -44 -9 -64 -15 -32 -9 -36 -14 -37 -45 -1 -27 -11 -45
-37 -71 -19 -19 -38 -32 -42 -29 -3 4 -12 2 -20 -4 -9 -9 -13 -8 -13 0 0 20
-15 11 -33 -19 -10 -16 -24 -30 -30 -30 -7 0 -30 -16 -52 -35 -22 -19 -43 -35
-47 -35 -5 0 -8 -7 -8 -15 0 -9 -11 -21 -25 -27 -14 -6 -25 -17 -25 -24 0 -7
-14 -21 -30 -31 -17 -9 -33 -25 -36 -35 -3 -10 -20 -33 -38 -51 -17 -18 -38
-48 -45 -65 -14 -34 -26 -40 -35 -19 -3 6 -4 3 -1 -9 3 -12 -1 -27 -10 -34 -8
-7 -15 -18 -15 -25 0 -7 -6 -18 -14 -24 -8 -7 -20 -41 -27 -77 -16 -79 -31
-97 -49 -54 -10 25 -17 29 -34 24 -52 -17 -95 -23 -146 -20 -30 2 -40 2 -22
-1 23 -3 32 -9 32 -23 0 -18 3 -18 46 -5 26 8 52 19 57 24 14 14 57 14 57 1 0
-5 -12 -10 -27 -11 -16 0 -22 -3 -15 -6 19 -7 14 -23 -10 -33 l-23 -9 23 0
c12 -1 22 4 22 9 0 6 14 10 30 10 17 0 30 -4 30 -9 0 -17 -93 -101 -113 -101
-20 0 -20 -1 3 -25 25 -27 23 -28 -40 -26 -39 2 -60 1 -140 -3 -85 -4 -88 -5
-70 -16 8 -5 41 -6 73 -3 55 6 60 4 84 -22 16 -16 22 -30 15 -34 -12 -7 -14
-81 -1 -81 5 0 9 7 9 15 0 8 9 15 19 15 17 0 18 -3 8 -25 -7 -14 -20 -25 -30
-25 -12 0 -17 -6 -15 -17 4 -19 29 -22 62 -8 15 7 18 5 14 -7 -4 -9 -1 -21 5
-27 8 -8 8 -11 -1 -12 -37 -4 -63 -20 -61 -38 1 -9 0 -18 -1 -21 -2 -6 -10
-105 -11 -132 0 -10 -5 -20 -10 -24 -6 -4 -6 -11 2 -20 7 -9 9 -29 5 -57 -4
-23 -8 -55 -9 -72 -2 -29 -1 -30 44 -29 35 0 46 -3 42 -13 -3 -7 -15 -13 -26
-13 -20 0 -20 -1 -2 -13 10 -8 15 -19 11 -25 -4 -7 -1 -12 8 -12 9 0 16 7 16
16 0 18 23 44 39 44 14 0 14 13 0 27 -7 7 -6 12 4 16 9 3 14 -1 13 -11 -1 -12
7 -17 24 -18 64 -2 65 -12 3 -25 -35 -7 -34 -8 14 -6 57 2 64 -4 62 -51 0 -16
-3 -21 -6 -12 -11 26 -28 37 -48 30 -13 -4 -15 -9 -7 -14 9 -5 8 -15 -3 -37
-9 -16 -20 -29 -25 -29 -6 0 -19 -9 -31 -21 -11 -11 -26 -18 -33 -16 -7 3 -28
2 -47 -3 -30 -7 -26 -8 31 -11 47 -2 54 -3 26 -6 -38 -4 -95 -46 -77 -58 5 -3
12 -1 16 5 4 6 19 4 43 -6 22 -9 38 -11 40 -5 2 5 9 8 17 5 7 -3 23 -1 34 6
13 6 21 7 21 1 0 -11 -62 -31 -97 -31 -16 0 -21 -5 -17 -15 8 -20 38 -28 131
-37 7 -1 10 -5 7 -10 -3 -4 55 -7 128 -6 l133 2 -105 6 c-58 3 -82 7 -53 8 30
1 53 7 56 15 4 10 6 10 6 0 1 -15 47 -17 56 -3 4 7 13 6 27 -1 16 -9 24 -7 37
6 15 16 15 17 -4 11 -11 -3 -27 -1 -35 4 -11 7 1 10 39 10 44 0 51 -2 42 -14
-9 -11 -6 -12 15 -8 18 3 29 -1 40 -17 8 -11 25 -21 37 -20 20 1 20 2 -3 8
-22 6 -23 8 -7 14 10 4 31 0 47 -8 26 -14 29 -14 24 0 -6 14 -3 14 21 3 16 -7
29 -8 33 -2 4 5 30 9 58 9 36 0 50 4 47 12 -3 7 7 13 24 16 15 2 12 3 -7 1
-19 -2 -50 -5 -67 -6 -18 -2 -33 0 -33 4 0 12 24 23 44 19 12 -2 17 2 14 11
-6 15 -71 12 -76 -3 -2 -5 -8 -9 -14 -9 -6 0 -8 6 -5 14 4 10 0 12 -15 8 -11
-3 -24 1 -30 9 -7 11 -11 11 -15 2 -3 -9 -28 -13 -71 -14 -52 -1 -60 -3 -37
-9 23 -6 12 -8 -42 -9 -39 0 -75 -5 -78 -11 -4 -6 -44 -9 -93 -8 l-87 2 85 6
c47 3 69 7 50 8 l-35 2 29 15 c16 9 55 15 92 15 34 0 66 5 69 10 3 6 17 10 31
10 16 0 23 -4 18 -11 -4 -7 1 -7 16 1 14 7 39 9 66 5 29 -4 44 -2 44 4 0 6 -9
11 -20 11 -32 0 -23 13 22 35 l42 20 -69 6 -70 5 78 2 c60 2 77 -1 77 -12 0
-8 -14 -19 -31 -25 -32 -11 -32 -25 0 -34 12 -3 18 0 15 7 -2 6 5 17 17 24 18
12 25 10 54 -12 59 -45 75 -32 20 17 -27 23 -32 33 -24 44 6 7 18 13 26 13 8
0 11 5 8 10 -3 6 3 10 15 10 12 0 18 -4 15 -10 -4 -6 16 -11 52 -12 l58 -1
-45 -7 -45 -7 47 -1 c26 -1 50 2 53 8 6 9 -14 16 -70 23 -16 2 -4 5 28 6 31 0
57 -3 57 -8 0 -11 40 -27 55 -22 6 2 60 5 120 8 133 6 156 16 30 13 -153 -3
-195 -1 -195 11 0 9 29 10 101 6 88 -5 98 -3 81 9 -26 18 -314 22 -320 5 -2
-6 -11 -11 -20 -11 -13 0 -11 5 8 20 22 18 38 20 148 18 67 -2 122 0 122 5 0
4 18 7 41 7 27 0 38 -4 33 -11 -5 -8 -1 -8 14 0 11 6 34 11 51 11 16 0 33 5
36 10 4 6 28 10 53 10 64 -2 110 6 127 20 15 12 69 8 88 -8 23 -19 84 -8 116
21 19 17 42 27 61 27 28 0 30 2 19 21 -7 13 -7 19 -1 15 6 -3 14 -2 17 4 4 6
15 8 26 5 23 -8 59 3 59 17 0 5 -7 8 -14 5 -10 -4 -13 -1 -9 9 3 7 12 14 20
14 14 0 63 44 63 55 0 3 -19 3 -42 1 -24 -3 -60 -5 -80 -5 -21 -1 -38 -6 -38
-12 0 -7 17 -10 45 -7 53 4 58 -4 13 -23 -18 -7 -39 -19 -46 -26 -25 -25 -35
-14 -30 32 5 39 3 45 -13 45 -11 0 -19 5 -19 10 0 6 -12 10 -27 10 -22 0 -25
-2 -13 -10 11 -7 4 -10 -25 -10 -29 0 -36 3 -25 10 13 8 12 10 -2 10 -10 0
-18 -7 -18 -15 0 -10 -11 -16 -32 -16 l-33 -2 30 -4 c16 -3 32 -8 35 -12 3 -3
16 -11 30 -17 23 -10 21 -11 -20 -11 -32 0 -39 2 -25 8 32 12 -63 11 -128 -2
-65 -13 -112 -6 -103 16 4 11 -2 15 -19 15 -16 0 -25 6 -25 15 0 18 -27 20
-33 3 -2 -7 -8 -10 -12 -6 -10 9 24 90 42 101 16 10 8 27 -12 27 -7 0 -16 -12
-19 -26 -4 -15 -9 -24 -12 -22 -2 3 0 17 5 30 11 30 52 43 82 28 11 -6 32 -9
47 -7 27 4 27 4 4 12 -27 9 -24 32 4 27 10 -2 40 -17 67 -33 26 -16 54 -29 62
-29 7 0 17 -4 20 -10 3 -5 19 -10 36 -10 19 0 29 -5 29 -15 0 -11 11 -15 39
-15 31 0 44 6 60 26 12 15 21 33 21 40 0 8 8 13 18 12 34 -3 62 2 62 11 0 5
-10 12 -22 16 -22 6 -22 7 7 16 17 5 37 6 47 3 9 -2 19 0 23 5 8 14 -27 47
-59 55 -31 8 -67 36 -60 48 3 4 -2 8 -11 8 -12 0 -15 5 -11 16 4 9 1 24 -6 32
-7 9 -8 13 -2 10 5 -4 36 -3 67 1 31 4 54 4 51 -1 -3 -4 -23 -8 -45 -8 -21 0
-39 -4 -39 -10 0 -5 51 -9 121 -9 75 1 117 4 108 10 -8 5 -26 9 -41 9 -16 0
-28 5 -28 10 0 6 -12 10 -27 10 -14 0 -24 3 -20 6 3 4 35 3 71 0 53 -6 65 -11
69 -28 9 -34 32 -14 41 38 10 55 24 71 42 46 14 -20 29 -10 21 13 -4 8 -18 15
-34 15 -16 0 -36 9 -46 20 -16 19 -16 20 8 20 14 0 25 -4 25 -10 0 -5 11 -12
25 -16 14 -3 25 -10 25 -14 0 -4 23 -13 50 -20 41 -10 53 -10 66 1 14 12 16
11 12 -6 -2 -12 -10 -19 -21 -17 -10 2 -17 -4 -17 -13 0 -8 7 -15 15 -15 8 0
15 -6 15 -14 0 -8 15 -17 35 -20 20 -4 33 -11 30 -16 -3 -5 -12 -7 -19 -4 -8
3 -17 1 -21 -5 -3 -7 3 -11 15 -11 12 0 18 -4 15 -10 -8 -12 -45 -13 -64 -1
-12 8 -12 12 -2 25 11 13 11 16 0 16 -8 0 -23 -7 -33 -15 -16 -12 -17 -17 -6
-30 7 -8 22 -15 34 -15 11 0 27 -4 35 -9 17 -11 -71 -25 -100 -16 -16 5 -20 3
-17 -6 3 -9 16 -13 35 -11 21 2 34 -2 41 -14 7 -12 24 -17 66 -19 53 -1 95
-15 47 -15 -12 0 -31 -5 -41 -10 -13 -7 -21 -7 -25 0 -3 5 -20 10 -36 10 -18
0 -28 -4 -24 -10 3 -5 17 -10 31 -10 13 0 24 -4 24 -10 0 -5 -19 -10 -42 -10
-52 -1 -34 -14 32 -24 32 -4 41 -3 30 4 -13 9 -13 11 0 20 8 5 26 9 40 8 23
-1 24 -1 3 -5 -27 -5 -31 -23 -5 -24 10 0 12 -3 5 -6 -7 -2 -13 -11 -13 -19 0
-9 5 -12 10 -9 6 3 10 -1 10 -9 0 -9 -4 -16 -10 -16 -5 0 -10 -5 -10 -11 0 -5
4 -8 9 -5 5 3 14 0 20 -8 9 -10 8 -15 -4 -20 -8 -3 -15 0 -15 6 0 6 -2 9 -5 6
-3 -3 -3 -12 1 -21 4 -13 10 -14 24 -7 26 14 31 13 28 -7 -2 -12 4 -19 20 -21
12 -2 22 -9 22 -17 0 -8 -7 -11 -21 -8 -16 4 -20 2 -17 -8 3 -8 13 -14 24 -14
10 -1 18 -7 16 -14 -1 -7 6 -28 17 -47 19 -31 19 -34 3 -44 -16 -9 -16 -11 0
-23 16 -12 13 -18 -31 -65 -27 -29 -57 -52 -67 -53 -16 0 -15 -2 4 -9 17 -7
27 -5 42 10 11 11 20 23 20 26 0 3 7 12 15 21 12 11 19 12 29 4 7 -6 16 -8 19
-5 3 3 18 -6 33 -20 33 -30 26 -45 -10 -21 -22 15 -29 15 -56 4 -44 -20 -37
-35 15 -31 28 3 45 0 45 -7 0 -6 -15 -11 -33 -11 -28 0 -33 -4 -35 -25 -2 -22
2 -25 36 -26 20 -1 29 -3 20 -6 -21 -5 -23 -19 -5 -26 8 -4 9 -8 2 -14 -6 -4
-11 -20 -12 -35 -1 -22 4 -27 26 -30 14 -2 24 -7 21 -13 -3 -5 -13 -8 -22 -7
-24 4 -23 -24 3 -77 26 -54 31 -81 19 -96 -11 -14 23 -81 39 -78 15 4 14 -14
-1 -20 -10 -4 -9 -8 2 -16 11 -8 12 -13 3 -19 -7 -4 -9 -13 -4 -21 5 -7 6 -22
4 -32 -4 -13 2 -22 18 -28 18 -7 19 -10 7 -10 -19 -1 -26 -31 -8 -31 6 0 10
-4 10 -10 0 -5 -8 -10 -17 -10 -17 -1 -17 -1 0 -11 14 -8 15 -14 7 -24 -7 -8
-9 -39 -6 -82 5 -64 4 -66 -10 -43 -14 25 -14 24 -10 -15 3 -22 5 -41 6 -42 0
-2 9 -3 20 -3 11 0 20 -7 20 -15 0 -8 -7 -15 -15 -15 -8 0 -15 -4 -15 -10 0
-5 7 -7 15 -4 8 4 15 1 15 -5 0 -6 -5 -11 -10 -11 -6 0 -10 -20 -9 -47 1 -27
1 -92 -1 -146 -2 -62 1 -101 7 -105 6 -4 13 -43 15 -88 3 -44 8 -86 12 -92 4
-7 3 -12 -1 -12 -5 0 -14 -18 -20 -41 -10 -38 -9 -41 14 -50 22 -8 23 -12 12
-25 -7 -9 -14 -25 -16 -36 -2 -14 2 -18 17 -16 10 2 20 -1 22 -7 2 -5 -7 -11
-19 -13 -12 -2 -24 -9 -27 -17 -3 -9 0 -12 10 -8 9 3 14 -1 14 -11 0 -9 -6
-16 -13 -14 -7 2 -14 -1 -15 -7 -1 -5 3 -10 8 -10 20 0 11 -20 -12 -25 -13 -3
-23 -12 -24 -20 -1 -8 -2 -27 -2 -42 -1 -16 -8 -28 -15 -28 -8 0 -13 -10 -13
-21 1 -16 -6 -22 -28 -25 -31 -3 -49 -14 -24 -14 9 0 19 -6 21 -12 4 -10 8
-10 15 1 7 9 12 10 16 2 4 -6 2 -11 -3 -11 -6 0 -11 -7 -11 -15 0 -10 -10 -15
-27 -15 l-28 0 33 -20 c33 -20 35 -43 4 -38 -12 2 -18 -5 -20 -27 -1 -16 -7
-39 -11 -50 -10 -23 -31 -119 -31 -141 0 -8 5 -14 10 -14 6 0 10 8 10 18 0 14
2 14 9 3 6 -10 1 -21 -19 -37 -17 -15 -28 -34 -29 -51 -2 -57 -13 -113 -23
-113 -6 0 -7 -7 -4 -16 3 -9 3 -21 -1 -27 -4 -7 -8 -25 -9 -42 -8 -120 -13
-147 -30 -159 -10 -7 -14 -18 -10 -25 6 -9 11 -9 22 0 11 9 14 7 14 -9 0 -20
-15 -37 -34 -37 -5 0 -11 -6 -14 -13 -2 -8 2 -10 13 -6 13 5 16 2 13 -12 -1
-10 -14 -21 -28 -25 -18 -5 -20 -7 -6 -8 13 -1 16 -6 11 -18 -4 -10 -7 -26 -7
-35 0 -9 -10 -43 -22 -75 -16 -40 -28 -57 -38 -55 -17 3 -32 -24 -22 -40 4 -6
1 -14 -6 -18 -9 -5 -9 -9 -1 -14 7 -5 14 4 17 23 6 29 24 44 24 21 0 -17 -31
-143 -40 -165 -5 -11 -20 -60 -34 -108 -14 -49 -32 -102 -41 -119 -8 -17 -15
-35 -15 -40 0 -5 -11 -34 -25 -64 -14 -30 -25 -60 -26 -67 -1 -18 -23 35 -23
57 -1 31 -20 29 -45 -5 -24 -32 -24 -32 -2 -26 25 6 38 -8 15 -17 -20 -8 -54
11 -54 29 0 8 5 15 10 15 6 0 10 8 10 17 0 14 -3 13 -20 -5 -20 -21 -25 -39
-22 -74 2 -22 32 -24 32 -2 0 14 2 14 15 0 32 -32 10 -66 -43 -66 -20 0 -31
-4 -27 -10 4 -6 14 -10 23 -9 50 5 54 -1 23 -27 -24 -20 -31 -34 -31 -61 0
-42 -22 -41 -31 3 -4 16 -7 21 -8 12 0 -9 -9 -19 -18 -21 -15 -4 -15 -6 5 -12
12 -4 22 -12 22 -19 -1 -16 -25 -46 -38 -46 -12 0 -19 -22 -25 -74 -3 -29 -11
-37 -52 -52 -18 -7 -17 -8 8 -12 26 -3 39 -22 16 -22 -6 0 -8 -7 -5 -16 9 -24
-34 -86 -56 -80 -23 5 -35 -13 -17 -25 8 -5 26 -9 42 -9 15 0 27 -5 27 -10 0
-6 -3 -9 -7 -9 -28 4 -35 -1 -22 -17 11 -14 9 -15 -23 -9 -31 6 -40 3 -59 -19
-12 -14 -31 -26 -41 -26 -27 0 -22 34 7 50 15 8 22 17 16 23 -12 12 -53 -16
-86 -59 -14 -19 -34 -34 -43 -34 -12 1 -8 6 11 16 15 8 27 21 27 29 0 20 -6
19 -39 -6 -19 -14 -27 -27 -24 -39 3 -12 -2 -20 -16 -25 -21 -6 -29 -25 -11
-25 6 0 10 -5 10 -10 0 -6 -3 -9 -7 -8 -15 4 -51 -13 -56 -26 -4 -9 4 -16 19
-20 48 -12 14 -23 -58 -19 -40 2 -88 4 -105 4 -18 0 -33 4 -33 10 0 6 22 10
53 9 86 -3 96 -1 107 20 8 15 8 18 -3 14 -8 -3 -17 2 -20 10 -4 9 -13 16 -22
16 -20 0 -19 22 4 48 19 22 34 20 25 -3 -11 -27 16 -24 37 5 13 16 30 30 40
30 19 0 45 27 35 37 -4 4 -11 1 -16 -7 -16 -26 -21 -4 -6 25 13 24 16 26 22
12 3 -9 13 -17 22 -17 13 0 13 2 -1 18 -19 21 -22 42 -7 42 6 0 10 -4 10 -10
0 -19 28 -10 61 20 17 17 38 29 45 26 10 -4 10 2 2 25 -9 26 -7 32 12 49 14
13 20 25 16 36 -4 10 -1 21 6 26 9 5 5 8 -11 8 -13 0 -30 -8 -37 -18 -12 -15
-15 -15 -24 -2 -7 11 -5 16 7 18 23 6 76 62 58 62 -19 0 -19 11 0 36 15 19 15
19 30 0 15 -19 15 -19 15 2 0 12 -4 22 -10 22 -15 0 -12 30 6 47 13 14 17 14
25 2 7 -9 7 -4 3 16 -5 25 -4 28 7 18 21 -21 29 -15 23 17 l-6 30 66 0 c37 0
66 4 66 10 0 6 -38 10 -94 10 -52 0 -101 3 -110 6 -36 14 -12 24 56 24 51 0
76 4 89 16 14 12 22 13 38 4 12 -6 21 -15 21 -20 0 -6 5 -10 11 -10 6 0 9 12
7 28 l-3 27 -87 0 c-91 0 -113 8 -53 19 39 8 47 25 13 27 -23 1 13 14 75 26
36 7 34 19 -5 27 -43 8 -77 44 -68 70 7 22 14 14 24 -26 8 -35 18 -35 75 0
l46 27 -32 3 c-21 2 -33 9 -33 18 0 13 13 16 85 19 23 1 31 6 33 23 4 29 32
29 32 0 0 -20 8 -15 51 32 40 43 52 51 59 40 14 -21 12 -30 -4 -24 -7 3 -21
-7 -30 -21 -19 -29 -15 -45 8 -26 8 6 20 10 27 9 18 -4 17 71 0 81 -9 6 -9 20
-2 52 5 24 8 45 7 47 -2 2 -13 -8 -24 -22 -11 -15 -28 -26 -37 -26 -13 0 -15
3 -6 13 13 16 5 27 -21 27 -29 0 -21 18 13 25 28 6 29 8 12 21 -21 15 -93 19
-93 4 0 -5 4 -10 9 -10 5 0 7 -9 4 -20 -3 -11 0 -20 6 -20 6 0 11 -5 11 -11 0
-11 -17 -10 -112 7 -21 3 -38 10 -38 14 0 13 53 19 70 7 10 -5 26 -7 36 -3 16
6 16 9 4 16 -8 6 -29 10 -46 10 -16 0 -35 5 -42 12 -17 17 -39 -5 -47 -49 -5
-27 -9 -33 -16 -22 -6 10 -9 10 -9 2 0 -25 3 -28 24 -25 21 3 21 2 1 -13 -12
-10 -30 -13 -46 -10 -19 4 -28 1 -32 -9 -5 -12 1 -16 24 -16 20 0 29 -4 26
-12 -2 -7 -13 -12 -23 -11 -17 2 -19 -4 -16 -43 2 -25 0 -44 -6 -44 -5 0 -13
-17 -17 -37 -7 -40 -28 -62 -60 -63 -22 -1 -59 -45 -51 -59 3 -5 -1 -12 -10
-15 -24 -9 -44 -7 -44 4 0 6 7 10 16 10 9 0 14 5 12 12 -7 21 -25 19 -31 -3
-10 -36 2 -49 44 -49 47 0 52 -15 8 -24 -28 -5 -29 -7 -15 -22 17 -16 21 -33
9 -35 -5 -1 -52 -3 -106 -4 -58 -1 -102 -6 -109 -13 -19 -19 11 -23 108 -14
58 6 91 5 96 -1 9 -15 -35 -78 -50 -72 -8 3 -25 5 -38 5 -20 0 -24 5 -25 33
l-1 32 -10 -29 c-8 -21 -8 -34 0 -47 14 -22 4 -32 -14 -15 -7 8 -12 27 -11 42
2 25 -1 29 -22 26 -34 -3 -38 -10 -16 -26 10 -7 15 -18 11 -24 -4 -7 -2 -12 4
-12 6 0 8 -4 5 -10 -8 -13 -105 -13 -105 0 0 6 -17 10 -37 11 -21 0 -32 3 -25
6 17 7 15 30 -3 37 -10 4 -15 -1 -15 -14 0 -17 -7 -19 -50 -19 -28 1 -53 6
-56 10 -3 5 -10 9 -15 9 -6 0 -4 -7 5 -15 9 -9 34 -15 65 -15 47 0 68 -12 39
-23 -7 -2 -10 -8 -6 -12 4 -4 19 0 32 9 35 22 45 1 13 -28 -17 -16 -30 -20
-40 -15 -18 10 -79 0 -72 -12 3 -4 1 -10 -4 -13 -4 -3 -11 -19 -14 -36 -5 -21
-12 -30 -27 -30 -14 0 -20 -7 -21 -22 -1 -17 -2 -19 -6 -5 -6 23 -34 22 -40
-2 -2 -10 -16 -24 -29 -30 -32 -14 -34 -14 -34 4 0 9 12 20 28 26 l27 11 -24
9 c-32 13 -51 5 -51 -21 0 -11 -4 -20 -10 -20 -5 0 -10 -11 -10 -24 0 -32 -9
-36 -40 -20 -24 13 -24 14 -3 14 16 0 23 8 29 32 3 18 14 39 23 46 14 12 14
13 -4 8 -59 -14 -89 -17 -75 -7 27 19 -15 24 -50 6 -17 -9 -38 -14 -46 -11 -7
3 -16 1 -19 -4 -9 -14 -43 -12 -48 3 -3 9 -8 8 -18 -4 -16 -19 -72 -30 -112
-22 -48 9 -29 23 32 23 33 0 63 5 66 10 4 6 21 8 43 4 34 -7 36 -6 23 9 -7 10
-25 18 -40 18 -14 1 0 6 32 11 67 12 77 30 14 27 -24 -2 -49 1 -55 5 -20 12
-14 26 11 26 22 0 57 27 57 43 0 13 -19 7 -37 -12 -23 -24 -93 -27 -93 -4 0
14 -2 14 -22 -1 -50 -36 -118 -66 -134 -59 -12 4 -15 3 -10 -5 4 -7 14 -12 22
-12 22 0 17 -18 -6 -22 -12 -2 -22 -7 -23 -13 -2 -11 -22 -38 -54 -72 l-22
-23 47 2 c26 1 53 7 60 15 17 16 36 16 86 -2 27 -9 45 -11 58 -4 10 6 18 6 18
1 0 -16 -41 -22 -155 -22 -60 0 -117 -5 -125 -10 -12 -8 -11 -10 7 -10 27 0
38 -16 17 -24 -9 -4 -14 -9 -11 -12 14 -15 -101 -100 -208 -154 -27 -14 -58
-32 -67 -41 -10 -9 -37 -21 -59 -28 -23 -7 -39 -17 -36 -24 5 -14 -30 -47 -49
-47 -8 0 -16 -11 -20 -25 -4 -16 -13 -25 -25 -25 -12 0 -19 -7 -19 -19 0 -25
-10 -51 -20 -51 -5 0 -6 9 -3 20 4 16 2 19 -12 14 -12 -5 -15 -14 -11 -30 4
-14 2 -24 -4 -24 -5 0 -10 5 -10 10 0 6 -5 10 -11 10 -6 0 -8 -7 -5 -15 3 -9
-1 -18 -9 -21 -28 -11 -16 -30 19 -29 24 1 41 11 64 36 17 19 32 40 32 47 0 6
7 12 15 12 13 0 14 -4 4 -22 -6 -13 -21 -33 -32 -45 -27 -30 -7 -30 25 0 14
13 31 21 38 19 7 -3 16 2 21 9 4 7 11 11 14 8 12 -13 -56 -70 -97 -83 -30 -10
-36 -14 -20 -15 13 -1 32 4 43 9 15 8 19 7 19 -3 0 -19 -19 -34 -50 -39 -14
-3 105 -5 264 -6 159 -1 286 1 283 5 -4 3 0 17 8 30 9 13 12 23 8 23 -11 1 39
29 51 30 6 0 -2 -12 -16 -28 -35 -38 -42 -62 -19 -62 13 0 20 10 25 30 4 24
11 30 31 30 21 0 25 -5 25 -29 0 -24 4 -28 25 -28 18 0 23 3 16 11 -17 20 -24
79 -9 73 7 -2 12 -10 10 -16 -1 -6 8 -11 20 -11 20 0 21 -1 3 -20 -16 -17 -16
-20 -2 -20 9 0 19 5 22 10 3 6 10 10 16 10 14 0 11 -28 -3 -33 -26 -11 32 -7
59 4 19 7 29 7 31 0 2 -7 39 -11 93 -11 72 0 87 3 83 14 -3 8 -1 17 5 21 7 3
11 -2 11 -14 0 -16 6 -21 25 -21 19 0 23 4 18 17 -4 11 -3 14 6 9 7 -5 20 -1
29 7 9 8 34 18 55 22 43 8 44 11 17 45 -34 43 -27 49 53 48 39 0 93 1 120 4
49 5 56 1 35 -20 -7 -7 -9 -12 -5 -12 4 0 16 9 27 20 l20 20 -23 9 c-13 5 -43
8 -66 5 -23 -2 -41 1 -41 6 0 6 7 10 15 10 9 0 18 7 21 15 4 8 14 15 24 15 11
0 21 4 24 8 3 5 26 4 51 -2 33 -8 45 -15 45 -29 0 -10 -7 -20 -16 -24 -8 -3
-13 -12 -10 -19 3 -9 -2 -14 -14 -14 -11 0 -20 -7 -20 -15 0 -8 9 -15 20 -15
11 0 20 4 20 8 0 11 56 43 64 35 14 -14 5 -33 -17 -33 -13 0 -28 -5 -35 -12
-11 -11 -53 -15 -156 -17 -43 -1 -25 -11 30 -17 86 -9 101 -54 18 -54 -24 0
-44 -4 -44 -10 0 -6 27 -10 60 -10 60 0 60 0 60 29 0 18 6 31 16 35 23 9 30 0
14 -18 -10 -13 -9 -18 3 -31 14 -13 490 -15 4491 -15 l4476 0 0 3790 0 3790
-4237 0 c-4102 0 -4236 -1 -4220 -18 22 -24 23 -49 1 -28 -18 18 -29 14 -36
-12 -5 -19 9 -46 28 -53 7 -3 6 -12 -3 -29 -8 -16 -13 -19 -13 -9 0 9 -9 24
-20 34 -12 11 -18 26 -15 35 3 11 -1 20 -10 24 -9 3 -14 10 -11 15 4 5 3 16 0
25 -5 14 -48 16 -393 16 l-386 -1 30 -24z m408 -1282 c26 -3 47 -10 47 -15 0
-5 10 -8 22 -6 15 2 23 -2 23 -12 0 -10 9 -14 23 -12 13 1 30 -5 38 -13 19
-18 45 -20 42 -2 -2 6 -7 15 -11 18 -5 3 -1 9 8 12 9 4 18 1 22 -8 3 -10 12
-13 23 -10 10 3 21 1 25 -5 3 -5 1 -10 -4 -10 -6 0 -11 -5 -11 -11 0 -12 43
-1 48 12 2 5 14 6 27 3 12 -3 26 -1 29 5 9 14 46 14 46 1 0 -5 -7 -10 -15 -10
-8 0 -15 -7 -15 -15 0 -9 9 -15 25 -15 27 0 35 -24 11 -33 -10 -4 -13 -1 -9 9
6 16 -8 19 -22 5 -6 -5 -19 -11 -30 -14 -15 -3 -13 -5 8 -6 16 -1 26 -5 22
-11 -3 -6 1 -13 9 -16 29 -11 17 -32 -21 -37 -31 -3 -43 0 -66 21 -15 15 -25
33 -22 40 3 10 0 12 -10 9 -8 -4 -17 -2 -20 3 -4 6 -15 10 -25 10 -11 0 -34 6
-52 14 -168 70 -240 96 -270 96 -21 0 -58 22 -58 34 0 2 26 -3 58 -11 31 -8
78 -17 105 -20z m-184 -13 c42 -10 93 -22 114 -25 20 -3 37 -10 37 -16 0 -6 8
-9 18 -8 19 3 135 -49 140 -62 2 -5 12 -9 23 -9 10 0 19 -6 19 -14 0 -8 7 -16
15 -20 21 -8 39 -57 24 -66 -6 -5 0 -10 16 -14 18 -5 25 -12 21 -21 -3 -8 3
-19 12 -24 20 -12 20 -12 -37 -14 -34 -1 -45 2 -46 14 -2 9 -6 31 -10 48 -6
27 -4 31 16 31 l22 0 -24 18 c-33 24 -70 40 -97 40 -13 1 -34 12 -47 26 -23
25 -55 27 -55 2 0 -8 -3 -7 -8 1 -6 9 -65 13 -215 14 -192 1 -240 7 -185 25
27 8 49 29 41 38 -4 3 1 6 10 6 10 0 17 6 17 13 0 11 43 27 94 36 5 0 43 -8
85 -19z m134 -136 c-3 -10 3 -14 20 -14 14 0 27 -6 30 -13 3 -9 -3 -12 -22 -9
-17 2 -32 -2 -40 -12 -15 -18 -1 -22 15 -6 6 6 19 8 28 4 14 -5 15 -9 4 -15
-9 -6 -9 -9 -1 -9 6 0 14 4 18 9 3 5 21 7 40 4 23 -4 35 -2 35 6 0 6 -5 11
-12 11 -6 0 -8 3 -4 7 4 5 13 1 19 -8 7 -9 19 -18 27 -21 8 -3 -13 -8 -46 -12
-34 -4 -75 -14 -90 -23 -16 -8 -58 -16 -93 -19 -38 -2 -71 -10 -81 -19 -16
-14 -51 -22 -37 -8 4 3 2 12 -5 20 -6 7 -8 17 -4 20 4 4 11 1 17 -7 8 -13 12
-12 24 4 8 11 15 26 15 33 0 7 4 13 8 13 5 0 8 -10 8 -22 -1 -20 3 -22 54 -19
58 3 70 7 70 22 0 5 -26 10 -57 11 -36 1 -45 3 -25 5 17 2 32 9 32 15 0 5 -7
7 -15 4 -9 -3 -24 -1 -34 6 -18 11 -30 9 -65 -14 -15 -10 -19 -10 -23 0 -3 8
-34 12 -108 12 -59 0 -107 4 -110 10 -4 6 10 10 34 10 30 0 41 4 41 15 0 10
10 15 33 14 17 0 26 -3 20 -6 -29 -11 -10 -21 35 -16 26 2 73 5 104 6 31 2 60
6 64 10 4 4 16 7 26 7 11 0 17 4 14 9 -3 4 5 6 19 4 15 -3 22 -10 18 -19z
m176 -110 c2 -2 -20 -4 -50 -4 -53 0 -109 -18 -64 -21 11 0 45 -2 75 -4 86 -4
82 -8 -15 -14 -81 -5 -88 -7 -67 -19 13 -7 45 -13 72 -14 l50 0 -23 -19 -22
-20 31 6 c24 5 33 2 38 -11 4 -9 4 -19 1 -22 -3 -3 -5 -1 -5 5 0 16 -69 21
-82 6 -6 -7 -17 -13 -24 -13 -8 0 -14 -4 -14 -10 0 -5 5 -10 12 -10 6 0 20 -8
31 -17 11 -10 18 -13 14 -7 -4 6 4 11 21 11 15 0 32 2 37 3 6 1 21 2 34 1 18
-1 21 -4 13 -14 -13 -16 -192 -23 -192 -8 0 6 13 8 33 5 l32 -5 -32 17 c-18 9
-33 21 -33 26 0 6 -13 8 -30 6 -24 -4 -27 -2 -19 9 7 7 17 13 24 13 6 0 20 9
30 20 10 11 13 20 7 20 -7 0 -12 -4 -12 -10 0 -14 -77 -13 -86 2 -4 6 -3 8 3
5 6 -4 25 -4 42 -1 26 6 29 9 20 25 -5 11 -20 19 -32 19 -21 0 -21 0 3 18 45
31 74 40 125 34 28 -2 52 -6 54 -8z m-760 -486 c19 -3 54 -1 78 4 32 7 48 6
58 -2 11 -9 15 -9 15 -1 0 6 7 11 15 11 9 0 12 -6 8 -17 -6 -17 -5 -17 13 -1
17 14 29 15 99 6 75 -9 244 -34 292 -44 27 -5 40 -46 49 -161 6 -74 5 -83 -10
-83 -10 0 -15 4 -12 9 8 13 -66 24 -116 17 -41 -5 -41 -5 -13 6 27 10 28 12
10 19 -11 4 -50 8 -88 8 -37 1 -76 6 -86 13 -14 9 -29 9 -54 1 -20 -6 -41 -7
-48 -2 -8 5 -86 8 -174 8 -88 -1 -151 -4 -140 -6 11 -3 26 -14 34 -26 13 -19
20 -19 115 -12 95 7 253 10 304 7 12 -1 32 -2 44 -2 13 1 27 -6 33 -14 6 -8
23 -18 38 -21 15 -4 27 -11 27 -16 0 -5 9 -9 20 -9 11 0 20 7 20 15 0 8 7 15
16 15 8 0 12 -4 9 -10 -7 -11 37 -24 57 -18 14 5 37 -19 38 -38 0 -6 -11 -11
-25 -11 -14 0 -25 3 -25 7 0 4 -28 10 -62 12 -35 3 -64 10 -66 16 -2 7 -9 12
-16 12 -18 0 -66 24 -66 33 0 11 -210 7 -232 -5 -10 -5 -19 -4 -23 2 -9 14
-121 12 -145 -2 -15 -10 -22 -10 -32 0 -16 16 -48 15 -62 -3 -6 -8 -27 -17
-46 -20 -19 -3 -30 -3 -23 1 7 3 9 12 6 20 -4 12 0 14 22 8 20 -5 26 -4 21 5
-5 7 0 11 13 11 27 0 27 17 1 25 -21 7 -80 -14 -80 -27 0 -5 -20 -8 -45 -8
-25 0 -45 4 -45 10 0 5 10 9 23 8 12 -1 40 8 62 20 l40 22 -60 1 c-33 1 -46 4
-30 6 53 6 75 13 75 23 0 6 -18 10 -40 10 -33 0 -40 3 -40 20 0 21 19 27 36
11 5 -6 29 -13 54 -17 41 -6 43 -5 26 8 -25 20 -4 33 24 16 13 -8 18 -20 15
-33 -3 -11 -2 -14 1 -7 3 6 13 12 22 12 15 1 15 2 0 14 -24 18 -23 24 5 29 20
4 20 4 -3 4 -71 2 -75 4 -25 19 28 9 59 17 70 19 38 6 65 17 65 26 0 12 -17
11 -25 -1 -4 -6 -12 -10 -18 -9 -7 1 -23 0 -37 -4 -55 -13 -100 -17 -100 -10
0 10 60 34 70 28 3 -2 24 2 46 10 29 10 33 14 16 15 -31 0 -64 19 -56 31 3 6
10 6 17 1 7 -5 27 -12 46 -14z m-203 -551 c0 -24 9 -55 18 -70 10 -14 18 -42
19 -60 1 -29 4 -33 24 -29 13 2 23 -1 23 -7 0 -6 -7 -11 -16 -11 -11 0 -14 -5
-10 -16 3 -9 6 -22 6 -29 0 -14 44 -35 95 -45 25 -5 17 -8 -45 -19 -75 -12
-140 -25 -215 -41 -24 -5 -46 -5 -57 1 -12 6 -25 6 -39 -2 -12 -6 -34 -8 -50
-5 -18 3 -34 0 -44 -10 -8 -9 -15 -11 -15 -6 0 13 -35 21 -49 13 -6 -4 7 -16
31 -29 33 -17 38 -22 21 -22 -13 0 -23 5 -23 10 0 6 -18 10 -40 10 -47 0 -59
17 -40 58 6 15 12 29 13 32 9 33 76 145 113 187 41 46 52 53 85 53 27 0 38 5
41 17 3 14 107 59 143 62 6 1 10 -18 11 -42z m981 -158 c45 2 57 -7 43 -29 -6
-10 -26 -14 -69 -13 -46 2 -61 -1 -61 -12 0 -10 16 -15 53 -18 l52 -3 -63 -2
c-40 -1 -61 2 -57 8 3 6 1 10 -5 10 -6 0 -9 4 -5 9 3 6 -12 12 -32 14 -33 3
-32 4 12 5 32 2 45 5 36 11 -7 5 -97 7 -200 6 -102 -1 -190 0 -196 4 -16 10
178 18 320 13 72 -2 149 -3 172 -3z m1436 -3602 c-6 -12 -17 -43 -23 -69 -9
-32 -18 -48 -29 -48 -13 0 -14 -2 -2 -9 12 -8 11 -15 -4 -48 -10 -21 -27 -51
-37 -66 -11 -15 -21 -34 -22 -41 -1 -8 -8 -21 -14 -29 -7 -9 -14 -25 -15 -36
-1 -14 -6 -20 -15 -16 -7 3 -19 5 -25 5 -7 0 -4 5 6 11 9 5 17 17 17 26 0 9 7
25 17 35 15 17 15 19 0 36 -10 10 -14 22 -11 25 4 4 13 -1 21 -11 13 -15 14
-14 8 11 -4 20 -2 27 10 27 18 0 19 12 4 27 -8 8 -5 14 10 23 16 8 20 17 16
31 -4 13 -2 19 9 19 10 0 16 9 16 23 0 12 9 37 20 55 11 18 20 41 20 51 0 28
14 35 24 11 6 -13 5 -28 -1 -43z m-1658 -396 c3 -5 0 -21 -7 -36 -9 -21 -9
-31 0 -46 7 -11 8 -19 2 -19 -5 0 -10 -4 -10 -10 0 -5 7 -10 15 -10 12 0 9 -7
-10 -27 -30 -33 -31 -39 -5 -46 22 -6 18 -37 -5 -37 -7 0 -15 -14 -19 -31 -4
-19 -13 -33 -26 -36 -11 -3 -20 -12 -20 -19 0 -8 -4 -14 -10 -14 -5 0 -10 -7
-10 -15 0 -8 -4 -15 -10 -15 -5 0 -12 -11 -16 -25 -3 -14 -12 -25 -20 -25 -16
0 -19 16 -4 25 6 3 10 17 10 31 0 13 3 24 8 24 4 0 20 11 35 25 21 20 27 35
27 65 0 28 4 40 14 40 9 0 14 11 13 34 -1 26 -4 33 -16 28 -9 -3 -19 -10 -23
-16 -4 -6 -12 -5 -22 3 -26 22 -19 31 23 31 35 0 40 3 46 29 4 20 1 38 -10 55
-17 25 -16 26 6 35 31 13 37 13 44 2z m41 -158 c-4 -9 -1 -20 6 -25 21 -13 28
-9 28 12 0 23 9 25 34 7 17 -13 18 -14 2 -20 -10 -4 -14 -12 -10 -18 4 -7 0
-17 -8 -23 -9 -7 -18 -23 -20 -36 -1 -13 -19 -41 -38 -61 -29 -31 -36 -34 -42
-21 -5 14 -7 14 -7 2 -1 -22 -41 -44 -54 -31 -8 8 -6 11 6 11 11 0 17 8 17 21
0 33 19 59 43 60 12 0 16 3 10 6 -21 8 -15 30 13 52 l26 20 -26 7 c-32 8 -34
27 -3 42 30 14 30 14 23 -5z m1250 -344 c-9 -17 -13 -37 -9 -43 3 -6 2 -8 -2
-3 -9 8 -45 -20 -45 -35 0 -5 -9 -19 -21 -31 -17 -18 -20 -31 -16 -73 5 -51
-6 -95 -17 -64 -2 8 -4 26 -3 40 3 36 -36 40 -58 7 -14 -22 -19 -23 -40 -13
-25 11 -42 36 -25 36 6 0 10 6 10 13 0 7 5 18 12 25 9 9 16 8 32 -6 11 -9 16
-12 13 -6 -4 7 0 14 8 18 23 8 18 29 -5 23 -11 -3 -20 -1 -20 4 0 5 6 9 13 9
12 1 69 80 80 113 7 18 27 24 27 8 0 -21 -20 -60 -44 -86 -30 -32 -33 -45 -10
-45 8 0 13 4 10 9 -3 5 3 11 14 14 11 3 24 16 29 29 5 12 18 31 29 41 11 11
18 26 15 37 -3 12 1 19 14 22 25 5 27 -6 9 -43z"/>
<path d="M8177 7509 c-16 -4 -35 -5 -43 -2 -8 3 -14 0 -14 -7 0 -8 -9 -11 -25
-8 -13 3 -22 1 -19 -4 8 -12 -208 -8 -223 5 -9 6 -13 6 -13 -2 0 -6 -17 -11
-40 -11 -22 0 -40 -4 -40 -10 0 -5 7 -10 16 -10 11 0 14 -5 10 -16 -4 -12 0
-15 17 -12 12 2 21 9 20 16 -4 15 -1 15 32 2 43 -16 300 17 333 43 9 7 24 5
51 -8 21 -9 47 -15 57 -13 13 3 4 9 -26 18 -25 7 -49 17 -55 20 -5 4 -23 4
-38 -1z"/>
<path d="M6623 7483 c-13 -2 -23 -9 -23 -15 0 -7 -5 -6 -15 2 -11 9 -27 9 -69
0 -31 -6 -68 -10 -83 -9 -62 5 -266 -1 -259 -8 9 -9 278 -11 337 -3 40 6 48 4
59 -14 9 -15 10 -21 1 -24 -6 -2 -11 -11 -11 -19 0 -11 6 -14 23 -9 12 4 55 9
95 13 39 3 72 10 72 14 0 9 -55 14 -115 11 -25 -1 -27 0 -10 8 11 5 39 9 63 9
26 1 41 5 37 11 -3 6 -24 10 -46 10 -42 0 -54 16 -16 23 18 3 18 4 2 4 -11 0
-30 -2 -42 -4z"/>
<path d="M8255 7124 c-11 -8 -28 -13 -38 -10 -10 2 -33 -2 -50 -9 l-32 -14 35
0 c19 0 52 3 73 8 21 5 37 5 37 0 0 -5 -9 -9 -20 -9 -11 0 -20 -5 -20 -11 0
-6 8 -8 19 -4 10 3 26 3 35 -1 15 -6 15 -7 -1 -20 -17 -13 -17 -13 4 -14 12 0
23 5 25 12 3 8 29 11 81 10 49 -1 77 3 77 9 0 6 6 9 13 6 6 -2 21 -1 32 4 15
6 11 8 -18 8 -24 1 -36 5 -32 11 4 6 28 10 54 9 26 -1 53 1 59 5 6 4 20 3 30
-3 11 -6 24 -6 32 -1 29 18 -1 21 -102 11 -107 -10 -258 -4 -258 10 0 13 -12
10 -35 -7z"/>
<path d="M5885 6654 c-6 -2 -37 -8 -70 -13 -44 -6 -50 -9 -25 -10 l35 -1 -25
-13 c-15 -8 -52 -13 -88 -12 -35 1 -65 -2 -68 -7 -3 -4 -18 -8 -35 -8 -18 0
-29 -5 -29 -14 0 -22 24 -26 57 -9 24 11 41 12 75 5 l43 -9 -40 -7 c-22 -4
-53 -13 -68 -21 -16 -8 -34 -12 -40 -9 -8 5 -9 4 -2 -4 11 -12 55 -5 55 9 0 5
20 9 44 9 39 0 44 -2 39 -20 -6 -21 -64 -34 -120 -26 -18 2 -42 2 -53 -1 -34
-9 -1 -24 36 -17 18 3 35 1 38 -5 5 -7 -5 -11 -29 -11 -22 0 -34 -4 -30 -10 3
-5 22 -10 41 -10 19 0 34 -4 34 -10 0 -5 -13 -10 -30 -10 -16 0 -30 -4 -30
-10 0 -5 10 -10 23 -10 52 -1 60 -43 10 -48 -18 -2 -33 -9 -33 -15 0 -9 14
-11 43 -9 52 5 62 14 48 41 -11 19 -9 21 20 21 36 0 99 20 99 31 0 4 -5 11
-11 15 -8 4 -7 9 2 15 9 6 -14 7 -56 3 -41 -4 -67 -3 -62 2 5 5 59 12 120 15
78 4 121 10 142 22 30 17 30 17 -35 11 -36 -4 -67 -6 -70 -6 -59 0 -80 4 -80
15 0 7 15 13 38 14 209 10 258 10 264 0 4 -7 11 -7 22 2 10 8 31 12 54 9 20
-3 60 -1 87 3 l50 8 -58 -4 c-31 -2 -55 0 -52 5 3 4 -3 6 -12 4 -10 -2 -68 -5
-129 -6 -93 -3 -111 -1 -106 11 4 10 1 13 -11 8 -9 -4 -24 -10 -32 -13 -10 -4
-15 0 -15 11 0 9 -3 15 -7 13 -5 -2 -25 -12 -45 -23 -21 -10 -41 -15 -45 -11
-14 14 15 41 63 58 27 9 40 17 29 18 -44 1 10 20 58 20 30 0 46 4 42 10 -6 10
-50 12 -70 4z"/>
<path d="M5960 6435 c-14 -7 -47 -24 -75 -37 -69 -32 -77 -46 -50 -82 12 -16
18 -17 27 -8 15 15 58 16 58 1 0 -8 5 -7 15 1 12 10 21 10 38 2 37 -17 58 -22
52 -12 -3 6 1 10 9 10 9 0 16 4 16 9 0 5 8 11 18 15 9 3 23 9 30 12 6 3 12 0
12 -6 0 -16 -22 -37 -46 -43 -16 -4 -16 -5 -1 -6 20 -1 22 -12 5 -29 -9 -9 -9
-12 1 -12 16 0 45 29 37 37 -3 3 2 19 12 35 15 26 21 29 52 23 l35 -6 -23 19
c-15 12 -21 24 -16 35 4 12 1 17 -11 17 -11 0 -15 -5 -12 -14 6 -15 -19 -31
-42 -27 -8 1 -18 -3 -22 -11 -7 -10 -11 -10 -21 0 -14 14 -38 16 -38 2 0 -5 7
-10 15 -10 23 0 18 -14 -11 -27 -20 -9 -25 -9 -21 0 3 9 -7 11 -35 8 -25 -2
-43 1 -48 9 -5 8 -13 9 -26 2 -11 -5 -28 -6 -39 -2 -19 7 -18 8 8 20 22 11 32
11 52 0 20 -11 29 -10 59 4 19 9 36 22 39 29 3 9 7 9 17 0 12 -11 49 -9 90 3
29 10 -13 24 -53 17 -30 -4 -41 -2 -56 16 -22 25 -19 24 -51 6z"/>
<path d="M5813 6403 c-18 -9 -35 -24 -38 -34 -8 -24 -42 -45 -90 -54 -31 -6
-36 -9 -21 -14 18 -7 18 -8 2 -14 -25 -10 -38 -9 -31 3 3 6 -3 10 -13 10 -11
0 -35 2 -53 5 -28 4 -30 3 -9 -4 22 -7 23 -9 7 -16 -11 -5 -24 -2 -35 8 -11
10 -31 15 -55 12 -20 -1 -37 1 -37 6 0 5 -5 9 -11 9 -8 0 -7 -6 2 -17 11 -13
11 -17 1 -20 -6 -3 -10 -9 -6 -14 3 -5 12 -2 20 6 9 8 27 15 42 15 l27 0 -22
-18 c-22 -17 -20 -17 60 -17 45 1 94 4 109 9 16 5 41 3 60 -3 54 -17 178 -18
189 -1 7 12 9 10 9 -7 0 -20 -5 -23 -44 -23 -25 0 -48 -4 -51 -10 -8 -12 -52
-13 -59 -1 -5 7 -121 7 -196 0 -8 -1 -30 2 -49 6 -27 6 -33 5 -29 -6 3 -8 13
-14 24 -15 10 -1 42 -4 71 -8 28 -3 64 -1 78 4 19 7 24 7 19 -2 -5 -8 21 -10
104 -5 66 3 114 2 118 -4 3 -5 10 -6 16 -3 6 4 38 6 72 5 60 -2 111 17 93 35
-4 4 -13 2 -19 -4 -7 -7 -26 -12 -42 -12 l-31 1 24 13 c22 12 22 13 -15 10
-22 -1 -43 -3 -47 -3 -5 -1 -5 -5 -2 -11 3 -5 2 -10 -3 -10 -6 0 -12 7 -16 15
-3 9 0 15 9 15 8 0 15 4 15 9 0 6 16 7 37 4 24 -4 34 -3 29 5 -3 6 2 13 11 16
10 2 4 4 -13 3 -17 -1 -38 3 -45 10 -17 13 -119 16 -119 3 0 -16 -90 -12 -106
5 -14 13 -14 15 0 15 8 0 18 -4 21 -10 3 -5 18 -9 33 -9 15 1 20 3 11 6 -11 3
-16 16 -16 43 0 35 3 40 28 45 16 4 29 13 29 21 0 17 -7 17 -47 -3z"/>
<path d="M9810 4972 c0 -5 14 -9 30 -10 17 0 40 -4 51 -7 12 -4 24 -3 28 2 3
4 41 3 86 -3 l80 -11 -90 0 c-131 1 -169 -17 -102 -47 41 -19 297 -26 297 -8
0 4 -64 8 -141 9 -138 2 -160 5 -145 20 8 9 176 7 205 -2 15 -5 21 -2 21 9 0
9 -5 16 -11 16 -7 0 -19 8 -28 18 -13 14 -37 17 -148 20 -73 1 -133 -2 -133
-6z"/>
<path d="M5560 3059 c0 -8 15 -9 48 -4 44 6 46 5 27 -9 -11 -8 -29 -16 -41
-16 -11 0 -29 -7 -40 -15 -18 -13 -17 -14 18 -15 25 0 36 -4 34 -12 -1 -7 -1
-10 1 -5 7 11 53 9 53 -3 0 -5 -9 -10 -19 -10 -11 0 -23 -5 -26 -10 -4 -6 -10
-8 -15 -5 -4 3 -19 0 -32 -5 -18 -8 -13 -10 30 -7 29 2 52 0 52 -6 0 -5 12 -6
26 -3 23 6 25 5 12 -8 -9 -9 -24 -12 -37 -9 -25 6 -111 -15 -111 -28 0 -11 24
-12 34 -2 4 4 24 8 44 9 29 2 33 1 16 -6 -44 -17 -31 -25 29 -19 34 3 70 9 80
13 10 5 17 4 17 -3 0 -9 5 -9 20 -1 14 8 26 8 40 0 14 -7 20 -7 20 0 0 11 -20
14 -59 11 -17 -2 -22 2 -18 12 4 11 0 13 -14 10 -10 -3 -19 0 -19 6 0 6 8 12
18 13 47 4 60 5 96 7 22 0 36 4 32 8 -3 4 -55 6 -114 6 -59 -1 -101 1 -94 4 6
2 12 11 12 19 0 17 33 18 61 3 19 -10 20 -9 9 11 -8 16 -20 21 -43 20 -18 -1
-52 -1 -77 0 l-45 2 35 10 c19 5 39 15 43 21 6 9 10 9 14 0 6 -15 33 -17 33
-3 0 6 -7 10 -15 10 -8 0 -15 5 -15 10 0 6 -27 10 -60 10 -37 0 -60 -4 -60
-11z"/>
<path d="M6032 2743 c-24 -26 -46 -60 -49 -75 -3 -15 -9 -28 -14 -28 -5 0 -9
-13 -9 -28 0 -15 -5 -33 -10 -38 -6 -6 -13 -41 -17 -78 -3 -37 -12 -74 -20
-81 -8 -9 -9 -16 -3 -20 7 -4 6 -13 -1 -27 -6 -11 -9 -31 -6 -44 5 -30 -11
-38 -91 -42 -18 -1 -31 -6 -28 -11 3 -4 28 -7 56 -5 l50 4 -3 -62 c-2 -42 2
-67 10 -77 8 -7 11 -21 8 -30 -3 -12 1 -17 15 -18 30 -2 35 16 11 41 -21 22
-27 68 -15 114 5 18 13 22 45 22 22 0 39 5 39 10 0 6 -18 10 -40 10 -33 0 -40
3 -40 19 0 11 4 22 9 25 4 3 11 25 14 48 10 66 34 178 40 184 3 3 45 7 93 9
47 2 90 7 95 12 4 4 -35 7 -87 6 -71 -2 -94 1 -91 10 2 7 17 14 33 17 23 4 30
12 39 44 8 29 13 35 18 23 7 -18 57 -24 57 -7 0 6 -8 10 -19 10 -10 0 -24 6
-31 14 -6 8 -18 12 -25 10 -12 -5 -12 0 -2 25 9 24 13 28 17 15 6 -15 7 -15
23 0 23 23 21 33 -5 39 -17 5 -32 -4 -66 -40z"/>
</g>
</svg>
